<svg xmlns="http://www.w3.org/2000/svg" viewBox="0 0 750 500"><g id="freepik--background-complete--inject-16"><path d="M559.65,117.12c7.38,0,131.64.82,139.45.57.56,0,.86-.84.3-1.12-4.92-2.44-10.5-1.95-15.62-3.67-3-1-4.86-3-6.95-5.24a14.35,14.35,0,0,0-6.46-4.22,13.67,13.67,0,0,0-7-.22c-2.52.6-4.71,2-7.12,3-6,2.25-11.77.11-16-4.31-3.51-3.63-7-7.07-11.75-9A15.63,15.63,0,0,0,616,92.66c-4.55,2.06-7.68,6.21-12,8.71-5.08,3-11.15,2.27-16.75,3.16s-9.91,5.62-14.82,8.33a10.4,10.4,0,0,1-5.36,1.66,30.26,30.26,0,0,1-3.27-.46c-1.69-.2-3.3-.16-4.43,1.25C559.11,115.66,559.17,117.12,559.65,117.12Z" style="fill:#ebebeb"></path><path d="M50.62,146.92c5.39,0,96.1.6,101.81.42.41,0,.62-.62.22-.82-3.6-1.78-7.67-1.42-11.41-2.68-2.2-.74-3.54-2.18-5.07-3.82a10.53,10.53,0,0,0-4.72-3.09,10.07,10.07,0,0,0-5.14-.16c-1.84.44-3.44,1.5-5.19,2.16-4.36,1.64-8.6.08-11.71-3.14-2.57-2.66-5.09-5.17-8.58-6.6a11.4,11.4,0,0,0-9.09-.13c-3.32,1.51-5.61,4.54-8.73,6.37-3.71,2.16-8.14,1.65-12.23,2.3s-7.23,4.1-10.82,6.09A7.72,7.72,0,0,1,56,145c-.8,0-1.58-.24-2.38-.34-1.23-.15-2.41-.11-3.24.92C50.22,145.86,50.26,146.92,50.62,146.92Z" style="fill:#ebebeb"></path><path d="M415.54,72.67c5.39,0,96.11.6,101.81.42a.45.45,0,0,0,.23-.82c-3.6-1.78-7.68-1.42-11.41-2.68-2.2-.74-3.55-2.17-5.07-3.82a10.48,10.48,0,0,0-4.72-3.08,10,10,0,0,0-5.14-.17c-1.84.44-3.44,1.5-5.2,2.16-4.35,1.65-8.59.08-11.7-3.14-2.57-2.66-5.09-5.17-8.58-6.6a11.36,11.36,0,0,0-9.09-.12c-3.32,1.5-5.61,4.54-8.73,6.36-3.71,2.16-8.14,1.65-12.23,2.3s-7.24,4.11-10.82,6.09A7.65,7.65,0,0,1,421,70.78a23.92,23.92,0,0,1-2.38-.34c-1.24-.15-2.41-.11-3.24.92C415.15,71.61,415.19,72.67,415.54,72.67Z" style="fill:#ebebeb"></path><path d="M429.23,164.94c.14.4,187.55,0,185.18,0-1.08,0,1.64-1.61.58-2.13-6.1-3-12.77-3.11-19.42-3.73-3.87-.35-7.86-.91-11.34-2.75s-5.74-5.06-8.24-8a35.24,35.24,0,0,0-32-12.12c-13.32,2.09-23.82,12.24-37.17,14.1-8,1.13-15.61-2-23.44-3.07-6.45-.89-11.83.36-17.6,3.22-4.23,2.09-8.14,3.86-12.91,4.19-3.67.26-7.36-.16-11-.2a24.77,24.77,0,0,0-16.24,6.49C425,161.44,423.11,164.94,429.23,164.94Z" style="fill:#ebebeb"></path><path d="M190.22,113.91c.14.4,187.55,0,185.18,0-1.08,0,1.64-1.61.58-2.13-6.1-3-12.77-3.11-19.42-3.72-3.87-.36-7.85-.92-11.34-2.76s-5.73-5.06-8.24-8a35.23,35.23,0,0,0-32-12.13c-13.33,2.09-23.83,12.24-37.18,14.11-8,1.12-15.6-2-23.44-3.08-6.45-.89-11.83.36-17.6,3.22-4.23,2.1-8.13,3.86-12.91,4.19-3.67.26-7.36-.16-11-.2a24.72,24.72,0,0,0-16.23,6.49C186,110.41,184.1,113.91,190.22,113.91Z" style="fill:#ebebeb"></path><path d="M323.57,222.21a24.13,24.13,0,0,1-8.19,0c-.25-.24,3.18-19,4.09-19S323.81,222,323.57,222.21Z" style="fill:#a6a6a6"></path><path d="M323.63,217.42c-.7.27-3.29,1.32-3.85,1.63v-.36l1.88-1.09a22.84,22.84,0,0,0,2-1.2s0-.09,0-.07a19.07,19.07,0,0,0-2,1.09l-1.89,1.15c0-.9,0-1.8,0-2.7a22.7,22.7,0,0,0,3-1.5s0-.08,0-.07a21.44,21.44,0,0,0-2.92,1.45c0-.47,0-.94,0-1.41,0-2.41,0-4.82-.09-7.24.61-.3,1.24-.58,1.85-.89a0,0,0,1,0,0-.07c-.62.24-1.22.53-1.83.8,0-1.25-.08-2.49-.15-3.73,0,0-.07,0-.07,0-.09,2.31-.08,4.62-.05,6.93-.63-.51-1.31-1-2-1.45,0,0-.05,0,0,0,.67.52,1.31,1.09,2,1.6,0,.13,0,.26,0,.39-.69-.31-1.39-.6-2.09-.9a0,0,0,1,0,0,.08c.71.34,1.41.69,2.13,1,0,1.14,0,2.29.05,3.43q0,3,.11,6-1.95-1-3.93-1.92a0,0,0,1,0,0,.07,40,40,0,0,0,4,2c0,1.66.07,3.32.09,5a.08.08,0,0,0,.16,0c0-2.11,0-4.23,0-6.35a40.24,40.24,0,0,0,3.9-1.58C323.74,217.5,323.69,217.39,323.63,217.42Z" style="fill:#c7c7c7"></path><path d="M410.09,244.35c-.24.25-3.07.35-4.09.35s-3.86-.1-4.1-.35,3.18-19,4.1-19S410.34,244.11,410.09,244.35Z" style="fill:#a6a6a6"></path><path d="M410.15,239.57c-.7.26-3.28,1.32-3.84,1.62v-.35l1.87-1.1a22.84,22.84,0,0,0,2-1.2s0-.08,0-.06a15.15,15.15,0,0,0-2,1.09c-.64.37-1.27.76-1.9,1.14,0-.9,0-1.8,0-2.7a20.44,20.44,0,0,0,2.95-1.5s0-.08,0-.06a21.5,21.5,0,0,0-2.93,1.44c0-.47,0-.94,0-1.4,0-2.41,0-4.83-.09-7.24.61-.31,1.25-.58,1.86-.89,0,0,0-.09,0-.08-.62.25-1.22.53-1.83.8,0-1.24-.09-2.49-.16-3.73a0,0,0,1,0-.06,0c-.09,2.31-.08,4.62-.06,6.94-.63-.51-1.31-1-2-1.45,0,0,0,0,0,0,.68.51,1.31,1.08,2,1.6v.39c-.69-.32-1.39-.61-2.08-.91-.06,0-.11.06,0,.08.71.34,1.42.69,2.13,1l.06,3.44c0,2,.07,4,.11,6q-1.95-1-3.93-1.92c-.05,0-.1.05-.05.08,1.29.73,2.62,1.4,4,2q.06,2.49.09,5a.08.08,0,0,0,.16,0q0-3.18,0-6.36a41.11,41.11,0,0,0,3.89-1.58C410.26,239.65,410.22,239.54,410.15,239.57Z" style="fill:#c7c7c7"></path><path d="M246.63,211.8a24.19,24.19,0,0,1-8.2,0c-.24-.25,3.18-19,4.1-19S246.87,211.55,246.63,211.8Z" style="fill:#a6a6a6"></path><path d="M246.68,207c-.7.27-3.28,1.32-3.84,1.63v-.36l1.87-1.09a21.48,21.48,0,0,0,2-1.2s0-.09,0-.07a16.43,16.43,0,0,0-2,1.09c-.64.38-1.27.76-1.89,1.15,0-.9,0-1.8,0-2.7a22.08,22.08,0,0,0,3-1.5s0-.08,0-.07a22.73,22.73,0,0,0-2.93,1.44c0-.46,0-.93,0-1.4,0-2.41,0-4.82-.09-7.24.62-.31,1.25-.58,1.86-.89,0,0,0-.09,0-.07-.62.24-1.22.53-1.83.8,0-1.25-.08-2.49-.16-3.73a0,0,0,0,0-.06,0c-.09,2.31-.08,4.62-.05,6.93-.64-.51-1.32-1-2-1.45,0,0-.05,0,0,0,.68.52,1.31,1.09,2,1.6v.39c-.69-.31-1.38-.61-2.08-.9a0,0,0,0,0-.05.08l2.14,1c0,1.14,0,2.29,0,3.43,0,2,.07,4,.11,6q-2-1-3.93-1.92c-.05,0-.1,0-.05.07a40,40,0,0,0,4,2q.06,2.49.09,5c0,.1.16.1.16,0,0-2.12,0-4.23,0-6.35a37.75,37.75,0,0,0,3.89-1.59C246.79,207.09,246.75,207,246.68,207Z" style="fill:#c7c7c7"></path><path d="M254.58,206.71c-.24.25-3.06.36-4.09.36s-3.86-.11-4.1-.36,3.18-19,4.1-19S254.83,206.47,254.58,206.71Z" style="fill:#c7c7c7"></path><path d="M254.64,201.93c-.7.26-3.28,1.32-3.84,1.62v-.35l1.87-1.09a22.84,22.84,0,0,0,2-1.2s0-.09,0-.07a16.43,16.43,0,0,0-2,1.09c-.64.37-1.27.76-1.89,1.14,0-.9,0-1.8,0-2.7a19.94,19.94,0,0,0,2.95-1.5s0-.07,0-.06a22.73,22.73,0,0,0-2.93,1.44c0-.47,0-.93,0-1.4,0-2.41,0-4.83-.09-7.24.61-.31,1.25-.58,1.86-.89,0,0,0-.09,0-.08-.62.25-1.22.54-1.83.8,0-1.24-.08-2.48-.16-3.73a0,0,0,1,0-.06,0c-.09,2.31-.08,4.63-.05,6.94-.64-.51-1.32-1-2-1.45,0,0,0,0,0,0,.68.52,1.31,1.09,2,1.6v.39l-2.08-.91c-.06,0-.1.06-.05.09.71.34,1.42.68,2.14,1,0,1.15,0,2.29.05,3.44,0,2,.07,4,.11,6-1.3-.65-2.61-1.3-3.93-1.92-.05,0-.1.05-.05.08a42.28,42.28,0,0,0,4,2q.06,2.49.09,5a.08.08,0,0,0,.16,0q0-3.18,0-6.35a38.68,38.68,0,0,0,3.89-1.59C254.75,202,254.71,201.9,254.64,201.93Z" style="fill:#a6a6a6"></path><path d="M174.35,217.9a24.13,24.13,0,0,1-8.19,0c-.24-.24,3.18-19,4.1-19S174.6,217.66,174.35,217.9Z" style="fill:#c7c7c7"></path><path d="M174.41,213.11c-.7.27-3.29,1.32-3.84,1.63,0-.12,0-.23,0-.35l1.88-1.1a22.84,22.84,0,0,0,2-1.2s0-.08,0-.07a16.5,16.5,0,0,0-2,1.1c-.64.37-1.27.75-1.9,1.14,0-.9,0-1.8,0-2.7a22.7,22.7,0,0,0,2.95-1.5s0-.08,0-.06a20.81,20.81,0,0,0-2.92,1.44c0-.47,0-.94,0-1.41,0-2.41,0-4.82-.09-7.23.61-.31,1.24-.58,1.86-.9,0,0,0-.09,0-.07-.63.24-1.23.53-1.84.8,0-1.24-.08-2.49-.15-3.73,0,0-.06,0-.07,0-.08,2.31-.08,4.62-.05,6.93-.63-.5-1.31-1-2-1.44,0,0-.05,0,0,0,.68.51,1.31,1.08,2,1.59v.4c-.69-.32-1.39-.61-2.08-.91-.06,0-.11.06,0,.08.71.34,1.42.69,2.13,1,0,1.14,0,2.29,0,3.43q0,3,.12,6c-1.3-.66-2.62-1.3-3.93-1.92,0,0-.1,0,0,.08a42.2,42.2,0,0,0,4,2c0,1.67.07,3.33.09,5a.08.08,0,0,0,.16,0c0-2.12,0-4.24,0-6.36a41.11,41.11,0,0,0,3.89-1.58C174.52,213.2,174.48,213.09,174.41,213.11Z" style="fill:#a6a6a6"></path><path d="M402.43,238.2a24.19,24.19,0,0,1-8.2,0c-.24-.24,3.18-19,4.1-19S402.67,238,402.43,238.2Z" style="fill:#c7c7c7"></path><path d="M402.48,233.41c-.69.27-3.28,1.32-3.84,1.63v-.36l1.88-1.09a21.32,21.32,0,0,0,2-1.2s0-.09,0-.07a18.1,18.1,0,0,0-2,1.09l-1.89,1.15c0-.9,0-1.8,0-2.7a22.7,22.7,0,0,0,2.95-1.5s0-.08,0-.06a20.29,20.29,0,0,0-2.92,1.44c0-.47,0-.94,0-1.41,0-2.41,0-4.82-.1-7.23.62-.31,1.25-.59,1.86-.9,0,0,0-.09,0-.07-.62.24-1.22.53-1.83.8,0-1.25-.08-2.49-.16-3.73a0,0,0,0,0-.06,0c-.09,2.31-.08,4.62-.05,6.93-.64-.51-1.31-1-2-1.45,0,0-.05,0,0,0,.68.51,1.31,1.08,2,1.59,0,.13,0,.26,0,.39-.69-.31-1.39-.6-2.09-.9-.05,0-.1.05-.05.08.71.34,1.42.69,2.14,1,0,1.14,0,2.29.05,3.43q0,3,.11,6-1.95-1-3.93-1.92c-.05,0-.09.05,0,.07a39,39,0,0,0,4,2c0,1.66.07,3.32.09,5a.08.08,0,1,0,.15,0c0-2.11,0-4.23,0-6.35a39.06,39.06,0,0,0,3.89-1.58C402.6,233.5,402.55,233.39,402.48,233.41Z" style="fill:#a6a6a6"></path><path d="M67,249.13s107.3-48.51,137.63-50c26.93-1.33,70.72,2.62,122.11,16.64,76.15,20.78,141.78,33.38,141.78,33.38Z" style="fill:#dbdbdb"></path><path d="M273.47,204.32a24.19,24.19,0,0,1-8.2,0c-.24-.24,3.18-19,4.1-19S273.71,204.08,273.47,204.32Z" style="fill:#c7c7c7"></path><path d="M273.52,199.53c-.7.27-3.28,1.32-3.84,1.63v-.35l1.87-1.1a21.48,21.48,0,0,0,2-1.2,0,0,0,0,0,0-.07,16.5,16.5,0,0,0-2,1.1q-1,.56-1.89,1.14c0-.9,0-1.8,0-2.7a21,21,0,0,0,2.95-1.5s0-.08,0-.06a20.4,20.4,0,0,0-2.93,1.44c0-.47,0-.94,0-1.41,0-2.41,0-4.82-.09-7.23.61-.31,1.25-.58,1.86-.9,0,0,0-.09,0-.07-.62.24-1.22.53-1.83.8,0-1.24-.08-2.49-.16-3.73a0,0,0,0,0-.06,0c-.09,2.31-.08,4.62,0,6.93-.64-.5-1.32-.95-2-1.44,0,0-.05,0,0,0,.68.51,1.31,1.08,2,1.6v.39c-.69-.32-1.38-.61-2.08-.91-.06,0-.1.06,0,.08.71.34,1.42.69,2.14,1,0,1.14,0,2.29.05,3.43,0,2,.07,4,.11,6q-1.95-1-3.93-1.92s-.1.05,0,.08a42.2,42.2,0,0,0,4,2c0,1.67.07,3.33.09,5a.08.08,0,0,0,.16,0q0-3.18,0-6.36a40.06,40.06,0,0,0,3.89-1.58C273.63,199.62,273.59,199.51,273.52,199.53Z" style="fill:#a6a6a6"></path><path d="M303.79,212.52a24.13,24.13,0,0,1-8.19,0c-.25-.25,3.18-19,4.09-19S304,212.27,303.79,212.52Z" style="fill:#c7c7c7"></path><path d="M303.85,207.73c-.7.27-3.29,1.32-3.85,1.63V209l1.88-1.09a22.84,22.84,0,0,0,2-1.2s0-.09,0-.07a17.37,17.37,0,0,0-2,1.09c-.63.37-1.26.76-1.89,1.15,0-.9,0-1.8,0-2.7a22.7,22.7,0,0,0,2.95-1.5s0-.08,0-.07a22.6,22.6,0,0,0-2.92,1.44c0-.46,0-.93,0-1.4,0-2.41,0-4.82-.09-7.24.61-.31,1.24-.58,1.85-.89a0,0,0,1,0,0-.07c-.62.24-1.22.53-1.83.8,0-1.25-.08-2.49-.15-3.73,0,0-.07-.05-.07,0-.08,2.31-.08,4.62-.05,6.93-.63-.51-1.31-1-2-1.45,0,0,0,0,0,0,.67.52,1.31,1.09,2,1.6,0,.13,0,.26,0,.39-.69-.31-1.39-.61-2.09-.9a0,0,0,1,0,0,.08c.71.34,1.41.68,2.13,1,0,1.14,0,2.29.05,3.43q0,3,.11,6-1.95-1-3.93-1.92a0,0,0,1,0,0,.07,40,40,0,0,0,4,2c0,1.66.07,3.32.09,5a.08.08,0,0,0,.16,0c0-2.12,0-4.23,0-6.35a37.91,37.91,0,0,0,3.9-1.59C304,207.81,303.91,207.7,303.85,207.73Z" style="fill:#a6a6a6"></path><path d="M318.35,219.56a24.13,24.13,0,0,1-8.19,0c-.24-.24,3.18-19,4.1-19S318.6,219.32,318.35,219.56Z" style="fill:#c7c7c7"></path><path d="M318.41,214.77c-.7.27-3.29,1.32-3.84,1.63,0-.12,0-.24,0-.36l1.88-1.09a22.84,22.84,0,0,0,2-1.2s0-.09,0-.07a18,18,0,0,0-2,1.09l-1.9,1.15c0-.9,0-1.8,0-2.7a22.7,22.7,0,0,0,2.95-1.5s0-.08,0-.07a22,22,0,0,0-2.92,1.45c0-.47,0-.94,0-1.41,0-2.41,0-4.82-.09-7.23.61-.31,1.25-.59,1.86-.9,0,0,0-.09,0-.07-.62.24-1.22.53-1.83.8,0-1.25-.09-2.49-.16-3.73,0,0-.06,0-.07,0-.08,2.31-.07,4.62-.05,6.93-.63-.51-1.31-1-2-1.45,0,0,0,0,0,0,.68.52,1.31,1.09,2,1.6v.39c-.69-.31-1.39-.6-2.08-.9-.06,0-.11.05-.05.08.71.34,1.42.69,2.13,1l.06,3.43c0,2,.07,4,.11,6q-2-1-3.93-1.92c-.05,0-.1,0-.05.07a40,40,0,0,0,4,2q.06,2.49.09,5a.08.08,0,1,0,.16,0q0-3.16,0-6.35a41.11,41.11,0,0,0,3.89-1.58C318.52,214.86,318.48,214.75,318.41,214.77Z" style="fill:#a6a6a6"></path><path d="M382.25,230.92a24.19,24.19,0,0,1-8.2,0c-.24-.24,3.19-19,4.1-19S382.49,230.68,382.25,230.92Z" style="fill:#c7c7c7"></path><path d="M382.31,226.13c-.7.27-3.29,1.32-3.85,1.63v-.35l1.88-1.1a22.84,22.84,0,0,0,2-1.2s0-.08,0-.07a17.45,17.45,0,0,0-2,1.1q-.94.56-1.89,1.14c0-.9,0-1.8,0-2.7a22.7,22.7,0,0,0,2.95-1.5s0-.08,0-.06a20.29,20.29,0,0,0-2.92,1.44c0-.47,0-.94,0-1.41,0-2.41,0-4.82-.09-7.23.61-.31,1.24-.58,1.85-.9,0,0,0-.09,0-.07-.62.24-1.22.53-1.83.8,0-1.24-.08-2.49-.16-3.73a0,0,0,0,0-.06,0c-.09,2.31-.08,4.62-.05,6.93-.64-.5-1.31-.95-2-1.44,0,0-.05,0,0,0,.67.51,1.3,1.08,2,1.59,0,.14,0,.27,0,.4-.69-.32-1.39-.61-2.09-.91-.05,0-.1.06,0,.08.7.34,1.41.69,2.13,1,0,1.14,0,2.29.05,3.43q0,3,.11,6-2-1-3.93-1.92a0,0,0,0,0,0,.08,41,41,0,0,0,4,2c0,1.67.07,3.33.09,5,0,.1.16.1.15,0,0-2.12,0-4.24,0-6.36a39.06,39.06,0,0,0,3.89-1.58C382.42,226.22,382.37,226.11,382.31,226.13Z" style="fill:#a6a6a6"></path><path d="M191,211.32a24.13,24.13,0,0,1-8.19,0c-.24-.24,3.18-19,4.1-19S191.21,211.08,191,211.32Z" style="fill:#c7c7c7"></path><path d="M191,206.53c-.7.27-3.29,1.32-3.84,1.63,0-.12,0-.24,0-.35l1.88-1.1a22.84,22.84,0,0,0,2-1.2s0-.08,0-.07a16.5,16.5,0,0,0-2,1.1c-.64.37-1.27.75-1.9,1.14,0-.9,0-1.8,0-2.7a22.7,22.7,0,0,0,3-1.5s0-.08,0-.06a20.81,20.81,0,0,0-2.92,1.44c0-.47,0-.94,0-1.41,0-2.41,0-4.82-.09-7.23.61-.31,1.24-.58,1.86-.9,0,0,0-.09,0-.07-.63.24-1.23.53-1.84.8,0-1.24-.08-2.49-.15-3.73,0,0-.06,0-.07,0-.08,2.31-.08,4.62-.05,6.93-.63-.5-1.31-.95-2-1.45,0,0,0,0,0,0,.68.51,1.31,1.08,2,1.59v.4c-.69-.32-1.39-.61-2.08-.91-.06,0-.11,0-.05.08.71.34,1.42.69,2.13,1,0,1.14,0,2.29.05,3.43q0,3,.12,6c-1.3-.66-2.62-1.3-3.93-1.92-.05,0-.1.05-.05.08a42.2,42.2,0,0,0,4,2c0,1.66.07,3.33.09,5a.08.08,0,0,0,.16,0c0-2.12,0-4.24,0-6.36a41.11,41.11,0,0,0,3.89-1.58C191.13,206.62,191.09,206.51,191,206.53Z" style="fill:#a6a6a6"></path><path d="M237.52,205.22a24.13,24.13,0,0,1-8.19,0c-.25-.24,3.18-19,4.09-19S237.76,205,237.52,205.22Z" style="fill:#c7c7c7"></path><path d="M237.58,200.43c-.7.27-3.29,1.32-3.85,1.63v-.35l1.88-1.1a22.84,22.84,0,0,0,2-1.2s0-.09,0-.07a19.07,19.07,0,0,0-2,1.09l-1.89,1.15c0-.9,0-1.8,0-2.7a22.7,22.7,0,0,0,2.95-1.5s0-.08,0-.06a20.81,20.81,0,0,0-2.92,1.44c0-.47,0-.94,0-1.41,0-2.41,0-4.82-.09-7.23.61-.31,1.24-.59,1.86-.9,0,0,0-.09,0-.07-.62.24-1.22.53-1.83.8,0-1.25-.08-2.49-.15-3.73,0,0-.07,0-.07,0-.08,2.31-.08,4.62,0,6.93-.63-.51-1.31-1-2-1.45,0,0,0,0,0,.05.67.51,1.31,1.08,2,1.59,0,.13,0,.26,0,.39-.69-.31-1.39-.6-2.09-.9a0,0,0,1,0,0,.08c.71.34,1.41.69,2.13,1,0,1.14,0,2.29.05,3.43q0,3,.11,6-1.95-1-3.93-1.92c-.05,0-.09,0,0,.07a40,40,0,0,0,4,2c0,1.66.07,3.32.09,5a.08.08,0,1,0,.16,0c0-2.11,0-4.23,0-6.35a40.24,40.24,0,0,0,3.9-1.58C237.69,200.52,237.64,200.41,237.58,200.43Z" style="fill:#a6a6a6"></path><path d="M349.48,230.09a18.31,18.31,0,0,1-6.15,0c-.18-.18,2.39-14.29,3.07-14.29S349.66,229.91,349.48,230.09Z" style="fill:#c7c7c7"></path><path d="M349.52,226.5c-.52.2-2.46,1-2.88,1.22v-.27l1.41-.82c.5-.29,1-.56,1.51-.9,0,0,0-.07,0,0a10.7,10.7,0,0,0-1.48.82c-.48.28-.95.57-1.42.86,0-.68,0-1.36,0-2a16.42,16.42,0,0,0,2.21-1.13s0-.06,0,0a14.84,14.84,0,0,0-2.19,1.08c0-.35,0-.71,0-1.06,0-1.81,0-3.62-.07-5.43l1.4-.67s0-.07,0-.06c-.47.18-.92.4-1.37.6,0-.93-.06-1.87-.12-2.8a0,0,0,0,0-.05,0c-.06,1.74-.06,3.47,0,5.21-.47-.38-1-.72-1.47-1.09,0,0,0,0,0,0,.51.39,1,.82,1.5,1.2v.3c-.52-.24-1-.46-1.57-.68a0,0,0,1,0,0,.06c.53.25,1.06.51,1.6.75,0,.86,0,1.72,0,2.58,0,1.5.05,3,.08,4.51-1-.5-2-1-3-1.45,0,0-.07,0,0,.06a29.81,29.81,0,0,0,3,1.5c0,1.25,0,2.5.06,3.74a.06.06,0,1,0,.12,0c0-1.59,0-3.18,0-4.77a29.75,29.75,0,0,0,2.92-1.19C349.61,226.56,349.57,226.48,349.52,226.5Z" style="fill:#a6a6a6"></path><path d="M111.14,238.45a18.31,18.31,0,0,1-6.15,0c-.18-.19,2.39-14.3,3.08-14.3S111.33,238.26,111.14,238.45Z" style="fill:#c7c7c7"></path><path d="M111.19,234.85c-.53.2-2.47,1-2.89,1.22v-.26l1.41-.83a15.41,15.41,0,0,0,1.51-.9s0-.06,0-.05a13.29,13.29,0,0,0-1.48.82c-.48.28-1,.57-1.42.86,0-.67,0-1.35,0-2a15.79,15.79,0,0,0,2.21-1.12,0,0,0,0,0,0-.05,17.1,17.1,0,0,0-2.19,1.08c0-.35,0-.7,0-1.05,0-1.81,0-3.63-.07-5.44.46-.23.94-.43,1.4-.67,0,0,0-.07,0-.05-.46.18-.91.4-1.37.6,0-.94-.06-1.87-.12-2.8a0,0,0,0,0,0,0c-.06,1.73-.06,3.47,0,5.2-.48-.38-1-.72-1.48-1.08,0,0,0,0,0,0,.5.38,1,.81,1.49,1.2v.29c-.52-.24-1-.46-1.56-.68,0,0-.08,0,0,.06.53.26,1.06.52,1.6.76,0,.86,0,1.72,0,2.58q0,2.25.09,4.5c-1-.49-2-1-3-1.44,0,0-.07,0,0,.06a33.38,33.38,0,0,0,3,1.5c0,1.24,0,2.49.07,3.74,0,.07.12.07.11,0,0-1.59,0-3.18,0-4.77a31.29,31.29,0,0,0,2.92-1.19S111.24,234.83,111.19,234.85Z" style="fill:#a6a6a6"></path><path d="M291.29,213.29c-.24.25-3.07.35-4.09.35s-3.86-.1-4.1-.35,3.18-19,4.1-19S291.54,213.05,291.29,213.29Z" style="fill:#a6a6a6"></path><path d="M291.35,208.51c-.7.26-3.29,1.31-3.84,1.62,0-.12,0-.23,0-.35l1.88-1.1a22.84,22.84,0,0,0,2-1.2s0-.08,0-.06a15.15,15.15,0,0,0-2,1.09c-.64.37-1.27.75-1.9,1.14,0-.9,0-1.8,0-2.7a20.44,20.44,0,0,0,2.95-1.5s0-.08,0-.06a22,22,0,0,0-2.92,1.44c0-.47,0-.94,0-1.4,0-2.42,0-4.83-.09-7.24.61-.31,1.24-.58,1.86-.89,0,0,0-.09,0-.08-.63.25-1.22.53-1.84.8,0-1.24-.08-2.49-.15-3.73,0,0-.06,0-.07,0-.08,2.31-.07,4.62-.05,6.93-.63-.5-1.31-.95-2-1.44,0,0,0,0,0,0,.68.51,1.31,1.08,2,1.6v.39c-.69-.32-1.39-.61-2.08-.91-.06,0-.11.06-.05.08.71.34,1.42.69,2.13,1l.06,3.44q0,3,.11,6-1.95-1-3.93-1.92c-.05,0-.1.05-.05.08,1.29.73,2.62,1.4,4,2q.06,2.49.09,5a.08.08,0,0,0,.16,0q0-3.18,0-6.36a41.11,41.11,0,0,0,3.89-1.58C291.46,208.59,291.42,208.48,291.35,208.51Z" style="fill:#c7c7c7"></path><path d="M133.44,230.92a24.19,24.19,0,0,1-8.2,0c-.24-.24,3.19-19,4.1-19S133.68,230.68,133.44,230.92Z" style="fill:#a6a6a6"></path><path d="M133.5,226.13c-.7.27-3.29,1.32-3.85,1.63v-.35l1.88-1.1a22.84,22.84,0,0,0,2-1.2s0-.08,0-.07a17.45,17.45,0,0,0-2,1.1q-.94.56-1.89,1.14c0-.9,0-1.8,0-2.7a22.7,22.7,0,0,0,3-1.5s0-.08,0-.06a20.29,20.29,0,0,0-2.92,1.44c0-.47,0-.94,0-1.41,0-2.41,0-4.82-.09-7.23.61-.31,1.24-.58,1.85-.9,0,0,0-.09,0-.07-.62.24-1.22.53-1.83.8,0-1.24-.08-2.49-.16-3.73a0,0,0,0,0-.06,0c-.09,2.31-.08,4.62-.05,6.93-.64-.5-1.31-.95-2-1.44,0,0,0,0,0,0,.67.51,1.3,1.08,2,1.59,0,.14,0,.27,0,.4-.69-.32-1.39-.61-2.09-.91-.05,0-.1.06,0,.08.7.34,1.41.69,2.13,1,0,1.14,0,2.29,0,3.43q0,3,.11,6-2-1-3.93-1.92a0,0,0,0,0,0,.08,41,41,0,0,0,4,2c0,1.67.07,3.33.09,5,0,.1.16.1.15,0,0-2.12,0-4.24,0-6.36a39.06,39.06,0,0,0,3.89-1.58C133.61,226.22,133.56,226.11,133.5,226.13Z" style="fill:#c7c7c7"></path><path d="M331.63,230.09a18.31,18.31,0,0,1-6.15,0c-.18-.18,2.39-14.29,3.08-14.29S331.82,229.91,331.63,230.09Z" style="fill:#a6a6a6"></path><path d="M331.68,226.5c-.53.2-2.47,1-2.89,1.22v-.27l1.41-.82c.5-.29,1-.56,1.51-.9,0,0,0-.07,0,0a10.7,10.7,0,0,0-1.48.82c-.48.28-.95.57-1.42.86,0-.68,0-1.36,0-2A15.84,15.84,0,0,0,331,224.2s0-.06,0,0a15.34,15.34,0,0,0-2.19,1.08c0-.35,0-.71,0-1.06,0-1.81,0-3.62-.07-5.43l1.4-.67a0,0,0,0,0,0-.06c-.46.18-.91.4-1.37.6,0-.93-.06-1.87-.12-2.8a0,0,0,0,0-.05,0c-.06,1.74-.06,3.47,0,5.21-.47-.38-1-.72-1.47-1.09,0,0,0,0,0,0,.51.39,1,.82,1.5,1.2v.3c-.52-.24-1-.46-1.57-.68a0,0,0,1,0,0,.06c.53.25,1.06.51,1.6.75,0,.86,0,1.72,0,2.58,0,1.5,0,3,.08,4.51-1-.5-2-1-2.95-1.45,0,0-.07,0,0,.06a30.92,30.92,0,0,0,3,1.5c0,1.25.05,2.5.07,3.74a.06.06,0,1,0,.11,0c0-1.59,0-3.18,0-4.77a29.75,29.75,0,0,0,2.92-1.19C331.76,226.56,331.73,226.48,331.68,226.5Z" style="fill:#c7c7c7"></path><path d="M391.56,236.25a18.31,18.31,0,0,1-6.15,0c-.19-.19,2.39-14.3,3.07-14.3S391.74,236.06,391.56,236.25Z" style="fill:#a6a6a6"></path><path d="M391.6,232.65c-.52.2-2.46,1-2.88,1.22v-.26l1.4-.83a14.46,14.46,0,0,0,1.52-.9s0-.06,0,0a13.29,13.29,0,0,0-1.48.82l-1.43.86v-2a17,17,0,0,0,2.21-1.12s0-.06,0-.05a14.84,14.84,0,0,0-2.19,1.08c0-.35,0-.7,0-1,0-1.81,0-3.63-.07-5.44.46-.23.93-.43,1.39-.67,0,0,0-.07,0,0-.47.18-.92.4-1.37.6,0-.94-.07-1.87-.12-2.8a0,0,0,0,0-.05,0c-.07,1.73-.06,3.47,0,5.2-.48-.38-1-.72-1.47-1.08,0,0,0,0,0,0,.51.38,1,.81,1.49,1.2a2.71,2.71,0,0,1,0,.29c-.52-.24-1-.46-1.57-.68,0,0-.08,0,0,.06.53.26,1.06.52,1.6.76,0,.86,0,1.72,0,2.58,0,1.5,0,3,.08,4.5-1-.49-2-1-2.95-1.44,0,0-.07,0,0,.06a31.92,31.92,0,0,0,3,1.5c0,1.24.06,2.49.07,3.74,0,.07.12.07.12,0,0-1.59,0-3.18,0-4.77.51-.13,2.46-1,2.92-1.19C391.69,232.71,391.65,232.63,391.6,232.65Z" style="fill:#c7c7c7"></path><path d="M257.63,211.34a18.37,18.37,0,0,1-6.16,0c-.18-.18,2.39-14.29,3.08-14.29S257.81,211.16,257.63,211.34Z" style="fill:#a6a6a6"></path><path d="M257.67,207.74c-.52.2-2.47,1-2.89,1.23v-.27l1.41-.82c.51-.3,1.05-.56,1.52-.9,0,0,0-.07,0,0a11.42,11.42,0,0,0-1.49.82c-.47.28-.95.56-1.42.86,0-.68,0-1.36,0-2a16.54,16.54,0,0,0,2.22-1.13s0-.06,0,0a16.66,16.66,0,0,0-2.2,1.09v-1.06c0-1.81,0-3.62-.07-5.43.46-.24.93-.44,1.39-.67,0,0,0-.07,0-.06-.47.18-.92.4-1.38.6,0-.93-.06-1.87-.12-2.8a0,0,0,1,0,0,0c-.07,1.73-.06,3.47,0,5.21-.48-.38-1-.72-1.47-1.09,0,0,0,0,0,0,.51.39,1,.82,1.49,1.2v.29l-1.56-.68s-.08.05,0,.07c.54.25,1.07.51,1.61.75l0,2.58c0,1.5.06,3,.09,4.5-1-.49-2-1-3-1.44,0,0-.07,0,0,.06a33.38,33.38,0,0,0,3,1.5c0,1.25,0,2.49.07,3.74a.06.06,0,0,0,.12,0c0-1.59,0-3.18,0-4.77a29.93,29.93,0,0,0,2.93-1.19S257.72,207.72,257.67,207.74Z" style="fill:#c7c7c7"></path><path d="M203.75,207.87a18.37,18.37,0,0,1-6.16,0c-.18-.18,2.39-14.29,3.08-14.29S203.93,207.69,203.75,207.87Z" style="fill:#a6a6a6"></path><path d="M203.79,204.28c-.52.2-2.47,1-2.89,1.22v-.27l1.41-.82a14.46,14.46,0,0,0,1.52-.9s0-.06,0,0a11.42,11.42,0,0,0-1.49.82l-1.42.86c0-.68,0-1.35,0-2a15.44,15.44,0,0,0,2.22-1.13s0-.06,0,0a15.45,15.45,0,0,0-2.2,1.08V202c0-1.81,0-3.62-.07-5.43l1.39-.67s0-.07,0-.06c-.47.19-.92.4-1.38.6,0-.93-.06-1.86-.11-2.8,0,0,0,0,0,0-.07,1.74-.06,3.47,0,5.21-.48-.38-1-.72-1.47-1.09,0,0,0,0,0,0,.51.39,1,.82,1.49,1.2v.3c-.52-.24-1.05-.46-1.57-.68,0,0-.08,0,0,.06.54.25,1.07.51,1.61.75,0,.86,0,1.72,0,2.58,0,1.5.05,3,.08,4.51-1-.5-2-1-3-1.45,0,0-.07,0,0,.06a30.92,30.92,0,0,0,3,1.5c0,1.25,0,2.5.07,3.74a.06.06,0,0,0,.12,0c0-1.59,0-3.18,0-4.77a29,29,0,0,0,2.93-1.19S203.84,204.26,203.79,204.28Z" style="fill:#c7c7c7"></path><path d="M163.77,222.53a18.31,18.31,0,0,1-6.15,0c-.18-.19,2.39-14.3,3.08-14.3S164,222.34,163.77,222.53Z" style="fill:#a6a6a6"></path><path d="M163.82,218.93c-.53.2-2.47,1-2.89,1.22v-.26l1.41-.83a15.41,15.41,0,0,0,1.51-.9s0-.06,0,0a13.29,13.29,0,0,0-1.48.82c-.48.28-.95.57-1.42.86,0-.67,0-1.35,0-2a15.79,15.79,0,0,0,2.21-1.12,0,0,0,0,0,0,0,18.53,18.53,0,0,0-2.19,1.08c0-.35,0-.7,0-1,0-1.81,0-3.63-.07-5.44.46-.23.94-.43,1.4-.67,0,0,0-.07,0,0-.46.18-.91.4-1.37.6,0-.94-.06-1.87-.12-2.8a0,0,0,0,0-.05,0c-.06,1.73-.06,3.47,0,5.2-.48-.38-1-.72-1.48-1.08,0,0,0,0,0,0,.5.38,1,.81,1.49,1.2v.29c-.52-.24-1-.46-1.56-.68-.05,0-.08,0,0,.06.53.26,1.06.52,1.6.76,0,.86,0,1.72,0,2.58q0,2.25.09,4.5c-1-.49-2-1-3-1.44,0,0-.07,0,0,.06a33.38,33.38,0,0,0,3,1.5c0,1.24,0,2.49.07,3.74a.06.06,0,0,0,.11,0c0-1.59,0-3.18,0-4.77a29.75,29.75,0,0,0,2.92-1.19C163.9,219,163.87,218.91,163.82,218.93Z" style="fill:#c7c7c7"></path><path d="M683,249.13s-62.67-49.94-135.53-54.43c-44.32-2.73-94.39,7.61-137.79,20.43-72.34,21.39-129.13,34-129.13,34Z" style="fill:#ebebeb"></path><g style="opacity:0.5"><path d="M554.82,249.13H586.2c16-3.23,32-6.81,47.9-9.31,10.51-1.78,21.31-2.21,32-2.48-20.4-8.46-44.5-6.42-65.74-2A267.35,267.35,0,0,0,554.82,249.13Z" style="fill:#dbdbdb"></path><path d="M498.53,249.13h14.33c15.16-5.52,30.43-10.53,46.27-14.62a462.47,462.47,0,0,1,48.77-10.28,216.59,216.59,0,0,1,30.19-2.92h.06l-.14-.05c-24.2-7.52-58-3.36-82.17,3C535.48,229.72,515.75,237.87,498.53,249.13Z" style="fill:#dbdbdb"></path><path d="M439.9,249.13h11q9.21-4,18.43-7.82C512.39,224,559.68,205.79,607.63,208h.29l-1.79-.56C554.47,191.86,486.07,219,444.26,246.21,442.8,247.18,441.34,248.14,439.9,249.13Z" style="fill:#dbdbdb"></path><path d="M400.19,249.13h4.28c10.39-5.48,20.82-10.62,31.41-15.51,37.21-16.72,87.55-38.13,129.53-36.91q-8.85-1.43-18-2a266.13,266.13,0,0,0-34.88.29h-.07c-37.3,6.64-76.3,26-100.36,44.18A155.16,155.16,0,0,0,400.19,249.13Z" style="fill:#dbdbdb"></path><path d="M351.92,249.13h6.53c8.07-4.66,16.18-9.12,24.41-13.41,21.63-11,47.84-23.93,74.4-32.71-16.33,3.43-32.38,7.62-47.61,12.13q-9.56,2.82-18.73,5.44a231.86,231.86,0,0,0-31.45,21.8C356.88,244.56,354.35,246.81,351.92,249.13Z" style="fill:#dbdbdb"></path><path d="M312.15,249.13h9.55q8.15-4.55,16.39-8.85c7.13-3.65,14.78-7.49,22.77-11.32-12.74,3.45-24.44,6.51-34.72,9.12-4.12,3-7.95,5.94-11.44,8.87C313.84,247.67,313,248.39,312.15,249.13Z" style="fill:#dbdbdb"></path></g><path d="M58.37,249.61c202.85-.61,430.41-.61,633.26,0-202.85.62-430.41.61-633.26,0Z" style="fill:#a6a6a6"></path><path d="M97.33,242c.52.52,6.54.75,8.73.75s8.22-.23,8.74-.75-6.78-40.56-8.74-40.56S96.81,241.5,97.33,242Z" style="fill:#c7c7c7"></path><path d="M97.21,231.81c1.49.57,7,2.81,8.19,3.47,0-.26,0-.51,0-.76l-4-2.33a46.56,46.56,0,0,1-4.31-2.56c-.06,0,0-.18.06-.14a35.92,35.92,0,0,1,4.21,2.32c1.36.8,2.7,1.62,4,2.44,0-1.92,0-3.84,0-5.76a45.15,45.15,0,0,1-6.28-3.19c-.07,0,0-.17,0-.13a44.45,44.45,0,0,1,6.23,3.07c0-1,0-2,0-3,.06-5.14.07-10.28.2-15.42-1.31-.66-2.65-1.24-4-1.9-.09,0,0-.2.07-.16,1.32.52,2.6,1.13,3.9,1.7.07-2.65.17-5.3.33-8,0-.08.14-.08.14,0,.18,4.93.17,9.85.11,14.78,1.35-1.08,2.8-2,4.17-3.09.06,0,.11.05.06.09-1.44,1.1-2.79,2.32-4.24,3.41,0,.28,0,.56,0,.83,1.47-.67,3-1.29,4.44-1.93.12,0,.22.12.11.18-1.52.72-3,1.46-4.55,2.14q-.06,3.66-.11,7.32c-.06,4.26-.15,8.52-.24,12.78q4.16-2.1,8.38-4.09c.1-.05.2.1.09.16a86.12,86.12,0,0,1-8.48,4.26c-.07,3.54-.15,7.08-.19,10.62a.17.17,0,0,1-.34,0c0-4.51.06-9,.07-13.54a83.36,83.36,0,0,1-8.3-3.38C97,232,97.06,231.75,97.21,231.81Z" style="fill:#a6a6a6"></path><path d="M435.81,242.18c.51.5,6.39.73,8.53.73s8-.23,8.53-.73-6.62-39.62-8.53-39.62S435.31,241.67,435.81,242.18Z" style="fill:#c7c7c7"></path><path d="M435.7,232.21c1.45.56,6.84,2.75,8,3.39v-.74l-3.9-2.28a45.72,45.72,0,0,1-4.21-2.5c-.06,0,0-.17.06-.14a34.34,34.34,0,0,1,4.11,2.28c1.33.77,2.64,1.57,3.94,2.38,0-1.88,0-3.75,0-5.62a46,46,0,0,1-6.14-3.12c-.07,0,0-.17.05-.14a46.48,46.48,0,0,1,6.09,3c0-1,0-1.95,0-2.92.05-5,.06-10,.19-15.06-1.28-.65-2.59-1.22-3.87-1.86-.08,0,0-.19.07-.16,1.29.51,2.54,1.11,3.81,1.67.07-2.59.17-5.18.33-7.77a.07.07,0,0,1,.13,0c.18,4.81.16,9.62.1,14.44,1.33-1.06,2.74-2,4.08-3,.06,0,.11.05.06.09-1.41,1.07-2.73,2.26-4.14,3.32,0,.28,0,.55,0,.82,1.43-.66,2.89-1.27,4.34-1.89.11,0,.21.12.1.17-1.48.71-2.95,1.43-4.45,2.1,0,2.38-.07,4.77-.1,7.15-.06,4.16-.15,8.32-.24,12.48q4.07-2.06,8.19-4c.1,0,.19.1.09.15a83.18,83.18,0,0,1-8.28,4.16c-.08,3.46-.15,6.92-.19,10.38a.17.17,0,0,1-.33,0c.05-4.41.06-8.82.07-13.23a84.43,84.43,0,0,1-8.11-3.3C435.46,232.39,435.56,232.16,435.7,232.21Z" style="fill:#a6a6a6"></path><path d="M121,241.65c.54.55,6.87.79,9.17.79s8.63-.24,9.17-.79-7.12-42.6-9.17-42.6S120.47,241.11,121,241.65Z" style="fill:#a6a6a6"></path><path d="M120.89,230.93c1.56.6,7.36,3,8.61,3.65v-.79c-1.4-.83-2.8-1.64-4.2-2.45a51.26,51.26,0,0,1-4.52-2.69c-.07-.05,0-.19.06-.15a38.2,38.2,0,0,1,4.43,2.44c1.42.84,2.83,1.7,4.23,2.56,0-2,0-4,0-6a48.15,48.15,0,0,1-6.6-3.36A.08.08,0,0,1,123,224a49,49,0,0,1,6.54,3.22c0-1,0-2.09,0-3.14.06-5.4.07-10.8.21-16.2-1.38-.69-2.79-1.3-4.16-2-.09,0,0-.2.07-.16,1.39.54,2.73,1.18,4.1,1.79.07-2.79.18-5.57.35-8.35a.07.07,0,1,1,.14,0c.19,5.17.18,10.34.11,15.52,1.43-1.14,2.94-2.14,4.39-3.25.06,0,.11.06.06.1-1.52,1.15-2.93,2.43-4.45,3.58,0,.29,0,.58,0,.87,1.54-.7,3.11-1.36,4.66-2,.13,0,.24.13.11.19-1.59.76-3.17,1.53-4.78,2.25q-.06,3.85-.11,7.69c-.06,4.48-.16,9-.25,13.43q4.37-2.22,8.8-4.3a.1.1,0,1,1,.09.17,91.34,91.34,0,0,1-8.9,4.47c-.08,3.72-.16,7.44-.21,11.15a.18.18,0,0,1-.35,0c.06-4.74.06-9.48.08-14.22a87.43,87.43,0,0,1-8.72-3.55A.14.14,0,0,1,120.89,230.93Z" style="fill:#c7c7c7"></path><path d="M664.15,241.65c.54.55,6.87.79,9.17.79s8.63-.24,9.18-.79-7.12-42.6-9.18-42.6S663.61,241.11,664.15,241.65Z" style="fill:#a6a6a6"></path><path d="M664,230.93c1.57.6,7.36,3,8.61,3.65v-.79c-1.39-.83-2.8-1.64-4.2-2.45a51.26,51.26,0,0,1-4.52-2.69c-.07-.05,0-.19.07-.15a38.07,38.07,0,0,1,4.42,2.44c1.42.84,2.83,1.7,4.23,2.56l0-6a48.73,48.73,0,0,1-6.6-3.36c-.07,0,0-.17.06-.14a49,49,0,0,1,6.54,3.22c0-1,0-2.09,0-3.14.06-5.4.07-10.8.21-16.2-1.37-.69-2.79-1.3-4.16-2-.09,0,0-.2.07-.16,1.39.54,2.73,1.18,4.1,1.79.08-2.79.18-5.57.35-8.35a.07.07,0,1,1,.15,0c.19,5.17.17,10.34.11,15.52,1.42-1.14,2.94-2.14,4.38-3.25.06,0,.12.06.06.1-1.51,1.15-2.93,2.43-4.45,3.58,0,.29,0,.58,0,.87,1.54-.7,3.11-1.36,4.67-2,.12,0,.23.13.1.19-1.58.76-3.17,1.53-4.78,2.25,0,2.57-.08,5.13-.11,7.69-.06,4.48-.16,9-.25,13.43q4.36-2.22,8.8-4.3a.1.1,0,0,1,.1.17,92.65,92.65,0,0,1-8.91,4.47q-.12,5.58-.2,11.15a.18.18,0,0,1-.35,0c.05-4.74.06-9.48.07-14.22a87.43,87.43,0,0,1-8.72-3.55A.14.14,0,0,1,664,230.93Z" style="fill:#c7c7c7"></path><path d="M527.93,241.65c.54.55,6.87.79,9.17.79s8.63-.24,9.18-.79-7.13-42.6-9.18-42.6S527.39,241.11,527.93,241.65Z" style="fill:#a6a6a6"></path><path d="M527.8,230.93c1.57.6,7.36,3,8.61,3.65v-.79c-1.4-.83-2.8-1.64-4.2-2.45a51.26,51.26,0,0,1-4.52-2.69c-.07-.05,0-.19.06-.15a37.4,37.4,0,0,1,4.43,2.44c1.42.84,2.83,1.7,4.23,2.56l0-6a48.15,48.15,0,0,1-6.6-3.36c-.07,0,0-.17.06-.14a49,49,0,0,1,6.54,3.22c0-1,0-2.09,0-3.14.06-5.4.07-10.8.21-16.2-1.37-.69-2.79-1.3-4.16-2-.09,0,0-.2.07-.16,1.39.54,2.73,1.18,4.1,1.79.07-2.79.18-5.57.35-8.35,0-.1.14-.1.14,0,.2,5.17.18,10.34.12,15.52,1.42-1.14,2.93-2.14,4.38-3.25.06,0,.11.06.06.1-1.52,1.15-2.93,2.43-4.45,3.58,0,.29,0,.58,0,.87,1.54-.7,3.11-1.36,4.67-2,.12,0,.23.13.1.19-1.59.76-3.17,1.53-4.78,2.25,0,2.57-.08,5.13-.11,7.69-.06,4.48-.16,9-.25,13.43q4.36-2.22,8.8-4.3a.1.1,0,0,1,.1.17,92.65,92.65,0,0,1-8.91,4.47c-.08,3.72-.16,7.44-.2,11.15,0,.23-.36.23-.35,0,0-4.74.06-9.48.07-14.22a87.43,87.43,0,0,1-8.72-3.55A.14.14,0,0,1,527.8,230.93Z" style="fill:#c7c7c7"></path><path d="M148,243.91c-.38.38-4.8.54-6.41.54s-6-.16-6.41-.54,5-29.78,6.41-29.78S148.38,243.53,148,243.91Z" style="fill:#c7c7c7"></path><path d="M148.09,236.41c-1.09.42-5.14,2.07-6,2.55,0-.18,0-.37,0-.55L145,236.7c1.05-.62,2.18-1.16,3.16-1.88.05,0,0-.14,0-.11a26.61,26.61,0,0,0-3.09,1.71c-1,.58-2,1.18-3,1.79,0-1.41,0-2.82,0-4.23a32.82,32.82,0,0,0,4.62-2.34c.05,0,0-.12,0-.1a34.69,34.69,0,0,0-4.58,2.25c0-.73,0-1.46,0-2.19,0-3.78,0-7.55-.15-11.32,1-.49,2-.92,2.91-1.4.06,0,0-.14-.05-.12-1,.38-1.91.83-2.86,1.25-.06-1.94-.13-3.89-.25-5.83a.05.05,0,1,0-.1,0c-.13,3.61-.12,7.23-.08,10.84-1-.79-2.05-1.49-3.06-2.26,0,0-.08,0,0,.06,1.06.81,2,1.7,3.11,2.5v.62c-1.07-.5-2.17-.95-3.26-1.42-.08,0-.16.08-.07.13,1.11.53,2.21,1.07,3.34,1.57,0,1.79.05,3.59.08,5.38,0,3.12.11,6.25.17,9.38q-3-1.54-6.15-3c-.08,0-.14.07-.07.11a63.61,63.61,0,0,0,6.23,3.13c0,2.6.11,5.2.14,7.8a.13.13,0,0,0,.25,0c0-3.32,0-6.63,0-10a62,62,0,0,0,6.09-2.47C148.27,236.55,148.2,236.37,148.09,236.41Z" style="fill:#a6a6a6"></path><path d="M570.66,243.91c-.38.38-4.8.54-6.41.54s-6-.16-6.41-.54,5-29.78,6.41-29.78S571,243.53,570.66,243.91Z" style="fill:#c7c7c7"></path><path d="M570.75,236.41c-1.09.42-5.14,2.07-6,2.55v-.55c1-.58,2-1.15,2.93-1.71s2.18-1.16,3.16-1.88c0,0,0-.14,0-.11a25.82,25.82,0,0,0-3.09,1.71c-1,.58-2,1.18-3,1.79,0-1.41,0-2.82,0-4.23a33.25,33.25,0,0,0,4.61-2.34s0-.12,0-.1a34,34,0,0,0-4.57,2.25c0-.73,0-1.46,0-2.19,0-3.78-.05-7.55-.14-11.32,1-.49,1.94-.92,2.9-1.4.07,0,0-.14,0-.12-1,.38-1.92.83-2.87,1.25,0-1.94-.13-3.89-.25-5.83,0-.07-.09-.07-.1,0-.13,3.61-.12,7.23-.07,10.84-1-.79-2.06-1.49-3.07-2.26,0,0-.08,0,0,.06,1.06.81,2.05,1.7,3.11,2.5,0,.21,0,.41,0,.62-1.08-.5-2.18-.95-3.26-1.42-.09,0-.17.08-.08.13,1.11.53,2.22,1.07,3.34,1.57,0,1.79.06,3.59.08,5.38,0,3.12.11,6.25.18,9.38q-3.06-1.54-6.15-3c-.08,0-.15.07-.07.11a63.45,63.45,0,0,0,6.22,3.13q.09,3.9.14,7.8c0,.15.25.15.25,0,0-3.32,0-6.63,0-10a61.06,61.06,0,0,0,6.09-2.47C570.93,236.55,570.86,236.37,570.75,236.41Z" style="fill:#a6a6a6"></path><path d="M323.11,243.91c-.38.38-4.8.54-6.41.54s-6-.16-6.41-.54,5-29.78,6.41-29.78S323.49,243.53,323.11,243.91Z" style="fill:#c7c7c7"></path><path d="M323.2,236.41c-1.09.42-5.14,2.07-6,2.55v-.55q1.47-.87,2.94-1.71c1.05-.62,2.18-1.16,3.16-1.88,0,0,0-.14,0-.11a26.61,26.61,0,0,0-3.09,1.71c-1,.58-2,1.18-3,1.79,0-1.41,0-2.82,0-4.23a33.37,33.37,0,0,0,4.62-2.34c.05,0,0-.12,0-.1a34,34,0,0,0-4.57,2.25c0-.73,0-1.46,0-2.19,0-3.78,0-7.55-.15-11.32,1-.49,1.95-.92,2.91-1.4.06,0,0-.14-.05-.12-1,.38-1.91.83-2.87,1.25-.05-1.94-.12-3.89-.24-5.83a.05.05,0,1,0-.1,0c-.14,3.61-.12,7.23-.08,10.84-1-.79-2.05-1.49-3.07-2.26,0,0-.07,0,0,.06,1,.81,2,1.7,3.1,2.5,0,.21,0,.41,0,.62-1.08-.5-2.17-.95-3.26-1.42-.08,0-.16.08-.07.13,1.11.53,2.21,1.07,3.34,1.57,0,1.79.05,3.59.08,5.38,0,3.12.11,6.25.17,9.38-2-1-4.09-2-6.15-3-.08,0-.15.07-.07.11a63.61,63.61,0,0,0,6.23,3.13c0,2.6.11,5.2.14,7.8,0,.15.25.15.24,0,0-3.32,0-6.63-.05-10a60.1,60.1,0,0,0,6.09-2.47C323.37,236.55,323.3,236.37,323.2,236.41Z" style="fill:#a6a6a6"></path><path d="M645.8,243.91c-.38.38-4.8.54-6.41.54s-6-.16-6.41-.54,5-29.78,6.41-29.78S646.18,243.53,645.8,243.91Z" style="fill:#c7c7c7"></path><path d="M645.89,236.41c-1.09.42-5.14,2.07-6,2.55v-.55c1-.58,2-1.15,2.93-1.71s2.18-1.16,3.16-1.88c0,0,0-.14,0-.11a26.74,26.74,0,0,0-3.1,1.71c-1,.58-2,1.18-3,1.79,0-1.41,0-2.82,0-4.23a33.25,33.25,0,0,0,4.61-2.34s0-.12,0-.1a34.69,34.69,0,0,0-4.58,2.25c0-.73,0-1.46,0-2.19,0-3.78-.05-7.55-.14-11.32,1-.49,1.94-.92,2.9-1.4.07,0,0-.14-.05-.12-1,.38-1.91.83-2.86,1.25-.05-1.94-.13-3.89-.25-5.83,0-.07-.09-.07-.1,0-.13,3.61-.12,7.23-.08,10.84-1-.79-2-1.49-3.06-2.26,0,0-.08,0,0,.06,1.06.81,2.05,1.7,3.11,2.5,0,.21,0,.41,0,.62-1.08-.5-2.18-.95-3.27-1.42-.08,0-.16.08-.07.13,1.11.53,2.22,1.07,3.34,1.57,0,1.79.06,3.59.08,5.38,0,3.12.11,6.25.18,9.38q-3.06-1.54-6.15-3c-.08,0-.15.07-.07.11a63.45,63.45,0,0,0,6.22,3.13q.09,3.9.14,7.8c0,.15.25.15.25,0,0-3.32,0-6.63,0-10A61.06,61.06,0,0,0,646,236.6C646.07,236.55,646,236.37,645.89,236.41Z" style="fill:#a6a6a6"></path><path d="M80.32,243.91c-.38.38-4.81.54-6.41.54s-6-.16-6.42-.54,5-29.78,6.42-29.78S80.7,243.53,80.32,243.91Z" style="fill:#c7c7c7"></path><path d="M80.41,236.41c-1.1.42-5.15,2.07-6,2.55v-.55c1-.58,2-1.15,2.93-1.71s2.18-1.16,3.16-1.88c0,0,0-.14,0-.11a26.61,26.61,0,0,0-3.09,1.71c-1,.58-2,1.18-3,1.79,0-1.41,0-2.82,0-4.23A32.7,32.7,0,0,0,79,231.64s0-.12,0-.1a34,34,0,0,0-4.57,2.25c0-.73,0-1.46,0-2.19,0-3.78,0-7.55-.14-11.32,1-.49,2-.92,2.91-1.4.06,0,0-.14-.05-.12-1,.38-1.91.83-2.87,1.25,0-1.94-.13-3.89-.24-5.83,0-.07-.1-.07-.1,0-.14,3.61-.13,7.23-.08,10.84-1-.79-2.06-1.49-3.07-2.26,0,0-.08,0,0,.06,1.06.81,2,1.7,3.11,2.5,0,.21,0,.41,0,.62-1.08-.5-2.17-.95-3.26-1.42-.09,0-.16.08-.08.13,1.11.53,2.22,1.07,3.34,1.57,0,1.79.06,3.59.08,5.38,0,3.12.11,6.25.18,9.38q-3.06-1.54-6.15-3c-.08,0-.15.07-.07.11a63.45,63.45,0,0,0,6.22,3.13q.09,3.9.15,7.8a.12.12,0,0,0,.24,0c0-3.32,0-6.63,0-10a61.06,61.06,0,0,0,6.09-2.47C80.58,236.55,80.51,236.37,80.41,236.41Z" style="fill:#a6a6a6"></path></g><g id="freepik--Floor--inject-16"><path d="M58.37,435.55c202.85-.62,430.41-.62,633.26,0-202.85.61-430.41.61-633.26,0Z" style="fill:#263238"></path></g><g id="freepik--Lines--inject-16"><path d="M473.57,425.73c23.35-.68,46.85-.68,70.2,0-23.35.67-46.85.67-70.2,0Z" style="fill:#263238"></path><path d="M70.56,417.59c17.42-.67,35-.67,52.38,0-17.42.68-35,.68-52.38,0Z" style="fill:#263238"></path><path d="M86.71,256.26c14.43-.68,29-.68,43.39,0-14.43.68-29,.68-43.39,0Z" style="fill:#263238"></path><path d="M68.74,261.25a352.69,352.69,0,0,1,37.92,0,352.69,352.69,0,0,1-37.92,0Z" style="fill:#263238"></path><path d="M509.36,416.72a352.69,352.69,0,0,1,37.92,0,352.69,352.69,0,0,1-37.92,0Z" style="fill:#263238"></path><path d="M50.3,407.93c23.65-.67,47.46-.67,71.12,0-23.66.67-47.46.67-71.12,0Z" style="fill:#263238"></path></g><g id="freepik--Birds--inject-16"><path d="M671.57,192.31a28.93,28.93,0,0,0-3.24-1.64,14,14,0,0,0-3.57-1.07,3.16,3.16,0,0,0-1.13.05,1.48,1.48,0,0,0-.36.14,1.53,1.53,0,0,0-.23.15,3.3,3.3,0,0,0-.41.29,15.68,15.68,0,0,0-1.41,1.25c-.88.86-1.67,1.77-2.46,2.71l.92-.26a27.05,27.05,0,0,0-3.65-1,15,15,0,0,0-1.92-.26,7.22,7.22,0,0,0-1,0,3.89,3.89,0,0,0-.56.1,4,4,0,0,0-.57.23,6.54,6.54,0,0,0-1.56,1.3c-.43.48-.82,1-1.19,1.48a23.6,23.6,0,0,0-1.94,3.19c.86-.9,1.69-1.81,2.56-2.65.44-.43.87-.85,1.33-1.22a6,6,0,0,1,1.37-.93,3.44,3.44,0,0,1,1.46-.05,13.81,13.81,0,0,1,1.72.35c1.14.29,2.31.65,3.43,1l.56.19.36-.45c.73-.91,1.52-1.81,2.3-2.67a15.25,15.25,0,0,1,1.2-1.21,2.21,2.21,0,0,1,.3-.25L664,191s0,0,.06,0a1.78,1.78,0,0,1,.64-.09,17.59,17.59,0,0,1,3.4.56C669.24,191.7,670.39,192,671.57,192.31Z" style="fill:#263238"></path><path d="M656.2,178a22.25,22.25,0,0,0-2-2.28,12.3,12.3,0,0,0-2.41-1.95,2.53,2.53,0,0,0-.88-.31,1.12,1.12,0,0,0-.32,0l-.23,0a2.34,2.34,0,0,0-.4.1,12.86,12.86,0,0,0-1.48.51c-.94.39-1.84.84-2.74,1.31l.79.09a23.19,23.19,0,0,0-2.48-1.93,12.78,12.78,0,0,0-1.4-.81,6.2,6.2,0,0,0-.79-.32,3.25,3.25,0,0,0-.47-.1,2.88,2.88,0,0,0-.51,0,5.46,5.46,0,0,0-1.6.51,15.24,15.24,0,0,0-1.38.76,20.63,20.63,0,0,0-2.5,1.84c.94-.42,1.87-.86,2.81-1.23a14.77,14.77,0,0,1,1.4-.52,5.09,5.09,0,0,1,1.35-.28,2.83,2.83,0,0,1,1.13.42,12.76,12.76,0,0,1,1.21.81c.79.58,1.57,1.23,2.31,1.88l.37.32.42-.23c.84-.47,1.73-.91,2.6-1.32a13.06,13.06,0,0,1,1.3-.56l.32-.09.14,0h.05a1.69,1.69,0,0,1,.52.14,14.87,14.87,0,0,1,2.44,1.5C654.61,176.84,655.4,177.45,656.2,178Z" style="fill:#263238"></path><path d="M280.09,152a35,35,0,0,0-3.72-2.55,17.7,17.7,0,0,0-4.23-1.9,3.87,3.87,0,0,0-1.41-.12,2.33,2.33,0,0,0-.46.11,3,3,0,0,0-.31.15c-.21.09-.37.19-.56.29a23.25,23.25,0,0,0-1.93,1.31c-1.22.93-2.34,1.92-3.47,2.94l1.18-.17a36,36,0,0,0-4.34-1.85,19,19,0,0,0-2.33-.63,7.34,7.34,0,0,0-1.28-.16,3.34,3.34,0,0,0-.7,0,6.8,6.8,0,0,0-.75.18,8.13,8.13,0,0,0-2.12,1.36,22.12,22.12,0,0,0-1.71,1.63,28.83,28.83,0,0,0-2.91,3.62c1.2-1,2.37-2,3.59-2.86.6-.46,1.21-.9,1.83-1.29a7.53,7.53,0,0,1,1.84-.92,4.14,4.14,0,0,1,1.81.18,17.35,17.35,0,0,1,2.06.71c1.37.53,2.75,1.18,4.06,1.83l.67.33.51-.5c1-1,2.16-2,3.26-2.91a19.62,19.62,0,0,1,1.68-1.31c.14-.08.28-.19.41-.25l.19-.11s0,0,.08,0a2.34,2.34,0,0,1,.8,0,21.8,21.8,0,0,1,4.11,1.24C277.32,150.86,278.69,151.44,280.09,152Z" style="fill:#263238"></path><path d="M110,99.31a22.31,22.31,0,0,0-2.54-1.62,11.61,11.61,0,0,0-2.86-1.18,2.57,2.57,0,0,0-.94-.05,1.49,1.49,0,0,0-.31.09,1.24,1.24,0,0,0-.2.1,3.1,3.1,0,0,0-.36.21,13.72,13.72,0,0,0-1.27.91c-.79.64-1.52,1.33-2.25,2l.78-.14a22.2,22.2,0,0,0-2.93-1.14,12.85,12.85,0,0,0-1.57-.38,7.44,7.44,0,0,0-.85-.08,2.56,2.56,0,0,0-.47,0,2.85,2.85,0,0,0-.5.14,5.76,5.76,0,0,0-1.39,1c-.39.36-.75.74-1.1,1.12a20.38,20.38,0,0,0-1.87,2.48c.79-.67,1.55-1.36,2.34-2a14.43,14.43,0,0,1,1.2-.9,5.14,5.14,0,0,1,1.2-.66,3.07,3.07,0,0,1,1.21.08,12.32,12.32,0,0,1,1.39.43c.92.33,1.86.73,2.75,1.14l.45.21.34-.35c.67-.69,1.39-1.37,2.11-2a12.82,12.82,0,0,1,1.09-.91c.09-.06.18-.13.27-.18l.12-.07s0,0,.05,0a1.31,1.31,0,0,1,.54,0,14.45,14.45,0,0,1,2.77.74C108.14,98.61,109.07,99,110,99.31Z" style="fill:#263238"></path><path d="M134.66,90.07a32.72,32.72,0,0,0-2.8-3.54,17,17,0,0,0-3.47-3.07,3.69,3.69,0,0,0-1.31-.53,1.43,1.43,0,0,0-.47,0l-.34,0c-.22,0-.41.08-.62.12a19.45,19.45,0,0,0-2.24.68c-1.44.52-2.8,1.13-4.18,1.77l1.17.19a34.84,34.84,0,0,0-3.59-3,18,18,0,0,0-2-1.3,9.14,9.14,0,0,0-1.18-.53,3.38,3.38,0,0,0-.68-.18,4.77,4.77,0,0,0-.76,0,8.48,8.48,0,0,0-2.44.67c-.74.31-1.43.67-2.12,1a30.21,30.21,0,0,0-3.85,2.6c1.44-.57,2.85-1.17,4.28-1.66a21.29,21.29,0,0,1,2.14-.69,7.32,7.32,0,0,1,2-.33,4.19,4.19,0,0,1,1.68.7,17.07,17.07,0,0,1,1.75,1.29c1.15.92,2.28,1.94,3.34,3l.53.51.64-.32c1.3-.65,2.65-1.26,4-1.82.67-.28,1.34-.55,2-.75l.47-.12.22,0s0,0,.08,0a2.19,2.19,0,0,1,.77.24,22,22,0,0,1,3.55,2.4C132.36,88.16,133.49,89.12,134.66,90.07Z" style="fill:#263238"></path></g><g id="freepik--Car--inject-16"><path d="M357.75,389.07c-.63,20.77-13.65,46.25-33.83,46.25-2,0-29,.47-30.78-.06-16.26-4.92-25.9-32-24.07-55.8C270.49,360.89,277,340.1,294,337.6c1.13-.16,29.56,0,30.79,0C345.14,337.6,358.43,366.73,357.75,389.07Z" style="fill:#263238"></path><path d="M330.89,389.07c-.82,20.77-12.58,46.25-38.79,46.25s-38.21-29.44-35.58-55.86c2-19.81,11.08-41.86,36.68-41.86C319.67,337.6,331.77,366.73,330.89,389.07Z" style="fill:#37474f"></path><path d="M320,388.47c-.67,16-9.44,35.61-28.82,35.61S263,401.41,265,381.07c1.52-15.25,8.32-32.23,27.24-32.23C311.84,348.84,320.69,371.27,320,388.47Z" style="fill:#c7c7c7"></path><path d="M286.08,352.3c.4,6.49,1.79,27.2,3.8,27.2,1.7,0,6.67-19.54,8.42-26.61a19.9,19.9,0,0,0-6.85-1.19A23.36,23.36,0,0,0,286.08,352.3Z" style="fill:#263238"></path><path d="M293.51,380.73c1.07.57,10.57-8.77,17.46-15.77a28.36,28.36,0,0,0-6.21-8.16C300.29,364.82,292.07,380,293.51,380.73Z" style="fill:#263238"></path><path d="M295.31,383.14c.48.85,10.69-2.43,19.89-5.57a47.5,47.5,0,0,0-2.08-7.74C304.7,375.3,294.72,382.09,295.31,383.14Z" style="fill:#263238"></path><path d="M296.27,386.06c-.1,1,10.23,2.36,19.61,3.4,0-.38.05-.76.07-1.14a48.1,48.1,0,0,0-.17-6.43C306.4,383.25,296.38,385,296.27,386.06Z" style="fill:#263238"></path><path d="M313,403a47.74,47.74,0,0,0,2.37-8.86c-9-2.92-19.49-6.08-20.27-5.06S305.11,397.69,313,403Z" style="fill:#263238"></path><path d="M301.81,417.9a26.25,26.25,0,0,0,8.3-8.92c-5.78-6.93-15.67-18.4-17.2-17.67S299.3,411.81,301.81,417.9Z" style="fill:#263238"></path><path d="M281.58,419.2a18.73,18.73,0,0,0,8.62,2,22.71,22.71,0,0,0,3.55-.27c-.31-5.44-1.73-28-3.84-28C288.25,393,283.41,411.82,281.58,419.2Z" style="fill:#263238"></path><path d="M270.41,406.05a30.24,30.24,0,0,0,5.25,8.54c4.49-8.06,11.71-21.49,10.34-22.21C285,391.86,277,399.52,270.41,406.05Z" style="fill:#263238"></path><path d="M267.31,394.16a47.6,47.6,0,0,0,1.44,7.09c7.35-4.87,14.9-10.18,14.37-11.13C282.7,389.38,275.12,391.62,267.31,394.16Z" style="fill:#263238"></path><path d="M267,383.68a55.73,55.73,0,0,0,0,6.59c7.79-1.15,15-2.48,15.14-3.43S274.76,384.76,267,383.68Z" style="fill:#263238"></path><path d="M267.34,379.51c7.54,2.52,15.1,4.75,15.77,3.88s-7.18-6.94-14.1-12A52.83,52.83,0,0,0,267.34,379.51Z" style="fill:#263238"></path><path d="M271.18,365.48s0,0,0,0c5.58,6.76,13.41,15.87,14.79,15.2s-4.79-17.66-7.51-24.78A25.31,25.31,0,0,0,271.18,365.48Z" style="fill:#263238"></path><path d="M657.46,389.07c-.63,20.77-13.66,46.25-33.84,46.25-2,0-29,.47-30.77-.06-16.27-4.92-25.91-32-24.08-55.8,1.43-18.57,7.9-39.36,24.91-41.86,1.14-.16,29.56,0,30.8,0C644.85,337.6,658.13,366.73,657.46,389.07Z" style="fill:#263238"></path><path d="M630.6,389.07c-.82,20.77-12.58,46.25-38.8,46.25s-38.21-29.44-35.57-55.86c2-19.81,11.08-41.86,36.68-41.86C619.37,337.6,631.48,366.73,630.6,389.07Z" style="fill:#37474f"></path><path d="M619.68,388.47c-.67,16-9.44,35.61-28.82,35.61s-28.15-22.67-26.12-43c1.52-15.25,8.32-32.23,27.24-32.23C611.55,348.84,620.4,371.27,619.68,388.47Z" style="fill:#c7c7c7"></path><path d="M585.79,352.3c.39,6.49,1.79,27.2,3.8,27.2,1.7,0,6.67-19.54,8.42-26.61a19.94,19.94,0,0,0-6.85-1.19A23.3,23.3,0,0,0,585.79,352.3Z" style="fill:#263238"></path><path d="M593.22,380.73c1.07.57,10.56-8.77,17.46-15.77a28.54,28.54,0,0,0-6.21-8.16C600,364.82,591.77,380,593.22,380.73Z" style="fill:#263238"></path><path d="M595,383.14c.48.85,10.69-2.43,19.88-5.57a46.51,46.51,0,0,0-2.08-7.74C604.41,375.3,594.43,382.09,595,383.14Z" style="fill:#263238"></path><path d="M596,386.06c-.1,1,10.22,2.36,19.6,3.4,0-.38.06-.76.07-1.14a46.45,46.45,0,0,0-.16-6.43C606.11,383.25,596.09,385,596,386.06Z" style="fill:#263238"></path><path d="M612.66,403a47.77,47.77,0,0,0,2.38-8.86c-9-2.92-19.49-6.08-20.28-5.06S604.81,397.69,612.66,403Z" style="fill:#263238"></path><path d="M601.51,417.9a26.28,26.28,0,0,0,8.31-8.92c-5.78-6.93-15.67-18.4-17.2-17.67S599,411.81,601.51,417.9Z" style="fill:#263238"></path><path d="M581.29,419.2a18.69,18.69,0,0,0,8.61,2,22.84,22.84,0,0,0,3.56-.27c-.32-5.44-1.73-28-3.85-28C588,393,583.12,411.82,581.29,419.2Z" style="fill:#263238"></path><path d="M570.11,406.05a30.26,30.26,0,0,0,5.26,8.54c4.49-8.06,11.71-21.49,10.33-22.21C584.71,391.86,576.69,399.52,570.11,406.05Z" style="fill:#263238"></path><path d="M567,394.16a50.28,50.28,0,0,0,1.44,7.09c7.36-4.87,14.9-10.18,14.37-11.13C582.41,389.38,574.83,391.62,567,394.16Z" style="fill:#263238"></path><path d="M566.66,383.68a53.67,53.67,0,0,0,0,6.59c7.79-1.15,15-2.48,15.13-3.43S574.47,384.76,566.66,383.68Z" style="fill:#263238"></path><path d="M567.05,379.51c7.54,2.52,15.1,4.75,15.76,3.88s-7.18-6.94-14.1-12A54,54,0,0,0,567.05,379.51Z" style="fill:#263238"></path><path d="M570.88,365.48s0,0,0,0c5.58,6.76,13.42,15.87,14.79,15.2s-4.79-17.66-7.5-24.78A25.43,25.43,0,0,0,570.88,365.48Z" style="fill:#263238"></path><path d="M454.27,399.9l-123.47.83s6.6-76.38,66-71.24S454.27,399.9,454.27,399.9Z" style="fill:#D6D6D6"></path><path d="M454.27,399.9l-123.47.83s6.6-76.38,66-71.24S454.27,399.9,454.27,399.9Z" style="opacity:0.5"></path><path d="M444.24,389.07c-.62,20.77-13.65,46.25-33.83,46.25-2,0-29,.47-30.78-.06-16.26-4.92-25.9-32-24.07-55.8,1.42-18.57,7.89-39.36,24.91-41.86,1.13-.16,29.56,0,30.79,0C431.63,337.6,444.92,366.73,444.24,389.07Z" style="fill:#263238"></path><path d="M417.38,389.07c-.81,20.77-12.58,46.25-38.79,46.25S340.38,405.88,343,379.46c2-19.81,11.09-41.86,36.68-41.86C406.16,337.6,418.26,366.73,417.38,389.07Z" style="fill:#37474f"></path><path d="M406.47,388.47c-.67,16-9.44,35.61-28.82,35.61s-28.15-22.67-26.12-43c1.52-15.25,8.32-32.23,27.24-32.23C398.33,348.84,407.19,371.27,406.47,388.47Z" style="fill:#c7c7c7"></path><path d="M372.57,352.3c.4,6.49,1.79,27.2,3.81,27.2,1.69,0,6.66-19.54,8.41-26.61a19.9,19.9,0,0,0-6.85-1.19A23.43,23.43,0,0,0,372.57,352.3Z" style="fill:#263238"></path><path d="M380,380.73c1.07.57,10.56-8.77,17.46-15.77a28.57,28.57,0,0,0-6.22-8.16C386.78,364.82,378.56,380,380,380.73Z" style="fill:#263238"></path><path d="M381.8,383.14c.49.85,10.7-2.43,19.89-5.57a47.5,47.5,0,0,0-2.08-7.74C391.19,375.3,381.21,382.09,381.8,383.14Z" style="fill:#263238"></path><path d="M382.76,386.06c-.09,1,10.23,2.36,19.61,3.4,0-.38.05-.76.07-1.14a48.1,48.1,0,0,0-.17-6.43C392.89,383.25,382.87,385,382.76,386.06Z" style="fill:#263238"></path><path d="M399.45,403a47.74,47.74,0,0,0,2.37-8.86c-9-2.92-19.49-6.08-20.27-5.06S391.6,397.69,399.45,403Z" style="fill:#263238"></path><path d="M388.3,417.9a26.25,26.25,0,0,0,8.3-8.92c-5.78-6.93-15.66-18.4-17.19-17.67S385.79,411.81,388.3,417.9Z" style="fill:#263238"></path><path d="M368.08,419.2a18.66,18.66,0,0,0,8.61,2,22.61,22.61,0,0,0,3.55-.27c-.31-5.44-1.73-28-3.84-28C374.74,393,369.9,411.82,368.08,419.2Z" style="fill:#263238"></path><path d="M356.9,406.05a30.26,30.26,0,0,0,5.26,8.54c4.48-8.06,11.7-21.49,10.33-22.21C371.49,391.86,363.48,399.52,356.9,406.05Z" style="fill:#263238"></path><path d="M353.8,394.16a47.6,47.6,0,0,0,1.44,7.09c7.35-4.87,14.9-10.18,14.37-11.13C369.19,389.38,361.61,391.62,353.8,394.16Z" style="fill:#263238"></path><path d="M353.44,383.68a55.73,55.73,0,0,0,0,6.59c7.79-1.15,15.05-2.48,15.14-3.43S361.25,384.76,353.44,383.68Z" style="fill:#263238"></path><path d="M353.84,379.51c7.54,2.52,15.09,4.75,15.76,3.88s-7.18-6.94-14.1-12A52.8,52.8,0,0,0,353.84,379.51Z" style="fill:#263238"></path><path d="M357.67,365.48s0,0,0,0c5.58,6.76,13.42,15.87,14.79,15.2S367.67,363,365,355.91A25.23,25.23,0,0,0,357.67,365.48Z" style="fill:#263238"></path><path d="M216.71,401.41l-114.12-9.29s3.84-75.58,62.62-65.59S216.71,401.41,216.71,401.41Z" style="fill:#D6D6D6"></path><path d="M216.71,401.41l-114.12-9.29s3.84-75.58,62.62-65.59S216.71,401.41,216.71,401.41Z" style="opacity:0.5"></path><path d="M221.24,389.07c-.63,20.77-13.66,46.25-33.84,46.25-2,0-29,.47-30.77-.06-16.27-4.92-25.91-32-24.08-55.8,1.42-18.57,7.9-39.36,24.91-41.86,1.13-.16,29.56,0,30.79,0C208.63,337.6,221.91,366.73,221.24,389.07Z" style="fill:#263238"></path><path d="M194.37,389.07c-.81,20.77-12.57,46.25-38.79,46.25S117.37,405.88,120,379.46c2-19.81,11.09-41.86,36.69-41.86C183.15,337.6,195.25,366.73,194.37,389.07Z" style="fill:#37474f"></path><path d="M183.46,388.47c-.67,16-9.44,35.61-28.82,35.61s-28.15-22.67-26.12-43c1.52-15.25,8.32-32.23,27.24-32.23C175.32,348.84,184.18,371.27,183.46,388.47Z" style="fill:#c7c7c7"></path><path d="M149.56,352.3c.4,6.49,1.79,27.2,3.81,27.2,1.69,0,6.67-19.54,8.42-26.61a20,20,0,0,0-6.86-1.19A23.43,23.43,0,0,0,149.56,352.3Z" style="fill:#263238"></path><path d="M157,380.73c1.07.57,10.56-8.77,17.46-15.77a28.57,28.57,0,0,0-6.22-8.16C163.77,364.82,155.55,380,157,380.73Z" style="fill:#263238"></path><path d="M158.79,383.14c.49.85,10.7-2.43,19.89-5.57a47.5,47.5,0,0,0-2.08-7.74C168.18,375.3,158.2,382.09,158.79,383.14Z" style="fill:#263238"></path><path d="M159.75,386.06c-.09,1,10.23,2.36,19.61,3.4,0-.38,0-.76.07-1.14a46.48,46.48,0,0,0-.17-6.43C169.88,383.25,159.86,385,159.75,386.06Z" style="fill:#263238"></path><path d="M176.44,403a47.74,47.74,0,0,0,2.37-8.86c-9-2.92-19.49-6.08-20.27-5.06S168.59,397.69,176.44,403Z" style="fill:#263238"></path><path d="M165.29,417.9A26.37,26.37,0,0,0,173.6,409c-5.79-6.93-15.67-18.4-17.2-17.67S162.78,411.81,165.29,417.9Z" style="fill:#263238"></path><path d="M145.07,419.2a18.66,18.66,0,0,0,8.61,2,22.61,22.61,0,0,0,3.55-.27c-.31-5.44-1.73-28-3.84-28C151.73,393,146.89,411.82,145.07,419.2Z" style="fill:#263238"></path><path d="M133.89,406.05a30.26,30.26,0,0,0,5.26,8.54c4.48-8.06,11.7-21.49,10.33-22.21C148.49,391.86,140.47,399.52,133.89,406.05Z" style="fill:#263238"></path><path d="M130.79,394.16a47.6,47.6,0,0,0,1.44,7.09c7.36-4.87,14.9-10.18,14.37-11.13C146.19,389.38,138.6,391.62,130.79,394.16Z" style="fill:#263238"></path><path d="M130.43,383.68a58,58,0,0,0,0,6.59c7.8-1.15,15.05-2.48,15.14-3.43S138.24,384.76,130.43,383.68Z" style="fill:#263238"></path><path d="M130.83,379.51c7.54,2.52,15.09,4.75,15.76,3.88s-7.18-6.94-14.1-12A52.8,52.8,0,0,0,130.83,379.51Z" style="fill:#263238"></path><path d="M134.66,365.48s0,0,0,0c5.58,6.76,13.42,15.87,14.79,15.2S144.66,363,142,355.91A25.23,25.23,0,0,0,134.66,365.48Z" style="fill:#263238"></path><path d="M681.15,360.47c-1.17,1.11-2.35,2.29-2.73,2.72a14.81,14.81,0,0,0-.35,2.92c-.26,3.86-.47,14.2-.33,14.54l.06.1c.24.31-.42,19.06-4.29,20.12S567.44,409,433.29,404.44a.15.15,0,0,1-.07-.05.35.35,0,0,1-.06-.09.36.36,0,0,1-.05-.09,32.93,32.93,0,0,1-.95-5.45q0-.31-.09-.66c-.09-.67-.19-1.39-.3-2.15,0-.36-.1-.73-.16-1.11s-.07-.52-.11-.8-.13-.79-.19-1.21c0-.21-.06-.41-.1-.62s-.06-.42-.1-.63c-.18-1.16-.39-2.38-.62-3.64-.09-.51-.19-1-.29-1.54s-.15-.78-.23-1.17C425.9,365,415.69,332,385.74,332c-26.23,0-37.46,16.45-42.21,33.53-.15.51-.29,1-.41,1.53s-.26,2-.38,2.53c-1,4.3-1.64,11.58-2,15.58l-.09.94c0,.31-.06.62-.08.93-.06.73-.11,1.45-.16,2.15,0,.49-.06,1-.08,1.46,0,.11,0,.21,0,.32,0,.41,0,.81,0,1.2s0,.69,0,1l0,.82c0,.27,0,.54,0,.8,0,.48,0,.94,0,1.39-.09,6.59.27,11-.11,11-1.51,0-129.61-2-130.77-3.07-.28-.26,0-4.32-.16-10.35,0-.45,0-.92,0-1.39,0-.32,0-.64-.05-1,0-.94-.09-1.91-.17-2.92,0,0,0-.07,0-.11-.07-1-.16-2.12-.28-3.23l-.09-.88c-.06-.45-.11-.9-.17-1.36-.48-3.91-1.24-12.1-2.41-16.3q-.22-.82-.48-1.65c-.16-.52-.32-1-.5-1.56-5.55-16.79-18.26-32.81-47.24-31.89-19.66.62-29.84,13.32-35.31,26.91a2.44,2.44,0,0,1-.1.24c-.16.4-.32.8-.47,1.21-.23.6-.45,1.2-.66,1.81-1.26,3.63-2.22,11.25-3,14.66,0,0,0,.05,0,.08q-.21,1-.39,1.92a0,0,0,0,0,0,0c-.22,1.06-.41,2.11-.58,3.11-.07.41-.14.81-.2,1.2l-.06.37c0,.27-.09.53-.13.79,0,0,0,.06,0,.09,0,.29-.09.58-.13.86-.1.61-.18,1.21-.26,1.78,0,.35-.1.69-.14,1s-.09.66-.13,1c-.06.48-.12.94-.18,1.37-.07.58-.14,1.13-.21,1.63,0,.14,0,.27,0,.39s-.05.37-.07.55c-.1.7-.19,1.3-.27,1.79l-.06.29c-.14.71-.28,1.13-.44,1.22a.11.11,0,0,1-.07,0c-2.26.08-34.23-5.16-37.9-6.14s-9-11.61-9.39-12.53l0-.11,0-.15a1.37,1.37,0,0,1,0-.29,9.68,9.68,0,0,1,.86-2.8s0-2.12-.1-4c-.23-6.8-.76-26.38-.76-32.05,0-6,8.12-20.2,8.12-20.2s7-44.18,11.14-47.89c4.9-4.38,39.8-8.32,39.8-8.32s37.46-37.35,66.41-46.14c48.64-14.77,207-14.71,253.89.67,50.49,16.56,102.43,58.56,103.42,58.56s35.67,2.19,98.07,28.33c18.89,7.91,28.65,38.74,30,39.55s3.66,1.16,4.24,6.43S682.31,359.35,681.15,360.47Z" style="fill:#D6D6D6"></path><g style="opacity:0.30000000000000004"><path d="M347.16,355.57a63.45,63.45,0,0,0-3.23,8.49c-45-1.41-138.35-6.87-138-8.85S311.23,355.07,347.16,355.57Z" style="fill:#fff"></path><path d="M673.86,365.53S470,372.28,461.7,371.26c-6.36-.78-26.72-1.86-36-2.33a87.89,87.89,0,0,0-4.93-12.13c10.81,2.05,35.68,6.69,39.57,6.69C465.35,363.49,673.86,365.53,673.86,365.53Z" style="fill:#fff"></path><path d="M641.67,316.06l-112.38-.17s-51.63-16.56-133.88-24c-6.78-.61-204.43-11.38-226.75-13.51-20.28-1.94-64.07-10.72-71.89-12.31,4.2-1,9.11-1.83,13.71-2.56,8.58,1.11,21.61,3.42,28.25,4.26,11.9,1.51,252.94,9.39,252.94,9.39l158.45-2.73h0c.87.11,45.39,5.7,99.47,29.15C652.38,304.79,641.67,316.06,641.67,316.06Z" style="fill:#fff"></path></g><g style="opacity:0.1"><path d="M157.62,331.47c-19.66.62-29.84,13.32-35.31,26.91a2.44,2.44,0,0,1-.1.24c-.16.4-.32.8-.47,1.21-.23.6-.45,1.2-.66,1.81-1.26,3.63-2.22,11.25-3,14.66,0,0,0,.05,0,.08q-.21,1-.39,1.92a0,0,0,0,0,0,0c-.22,1.06-.41,2.11-.58,3.11-.07.41-.14.81-.2,1.2l-.06.37c0,.27-.09.53-.13.79,0,0,0,.06,0,.09,0,.29-.09.58-.13.86-.1.61-.18,1.21-.26,1.78,0,.35-.1.69-.14,1s-.09.66-.13,1c-.06.48-.12.94-.18,1.37-.07.58-.14,1.13-.21,1.63,0,.14,0,.27,0,.39s-.05.37-.07.55c-.1.7-.19,1.3-.27,1.79l-.06.29c-.14.71-.28,1.13-.44,1.22a.11.11,0,0,1-.07,0c-2.26.08-34.23-5.16-37.9-6.14s-9-11.61-9.39-12.53l0-.11,0-.15a1.37,1.37,0,0,1,0-.29,9.68,9.68,0,0,1,.86-2.8s0-2.12-.1-4c-.23-6.8-.76-26.38-.76-32.05,0-6,8.12-20.2,8.12-20.2s-1.15,12,0,16.79,8.14,29.39,10.13,29.71,21.09-.82,23.35-.91S125.56,331.47,157.62,331.47Z"></path><path d="M341.88,374.4c-.53,3.79-.9,8-1.17,10.74l-.09.94c0,.31-.06.62-.08.93-.06.73-.11,1.45-.16,2.15,0,.49-.06,1-.08,1.46,0,.11,0,.21,0,.32,0,.41,0,.81,0,1.2s0,.69,0,1l0,.82c0,.27,0,.54,0,.8,0,.48,0,.94,0,1.39-.09,6.59.27,11-.11,11-1.51,0-129.61-2-130.77-3.07-.28-.26,0-4.32-.16-10.35,0-.45,0-.92,0-1.39,0-.32,0-.64-.05-1,0-.94-.09-1.91-.17-2.92,0,0,0-.07,0-.11-.07-1-.16-2.12-.28-3.23l-.09-.88c-.06-.45-.11-.9-.17-1.36-.48-3.91-1.24-12.1-2.41-16.3q-.22-.82-.48-1.65c-.16-.52-.32-1-.5-1.56,0,0,9.15,19.86,12.14,19.86s73,2.31,75.19,2.38-70.93.78-70.93.78S316.49,391,323.69,390C330.29,389.08,340.26,376.5,341.88,374.4Z"></path><path d="M673.51,400.87c-3.88,1.07-106.07,8.12-240.22,3.57a.15.15,0,0,1-.07-.05.35.35,0,0,1-.06-.09.36.36,0,0,1-.05-.09,32.93,32.93,0,0,1-.95-5.45q0-.31-.09-.66c-.09-.67-.19-1.39-.3-2.15,0-.36-.1-.73-.16-1.11s-.07-.52-.11-.8-.13-.79-.19-1.21c0-.21-.06-.41-.1-.62s-.06-.42-.1-.63c-.18-1.16-.39-2.38-.62-3.64-.09-.51-.19-1-.29-1.54s-.15-.78-.23-1.17c-.37-1.84-.79-3.78-1.27-5.8,0,0,27.67,11.38,33,11.38s195.85-2.69,200.68-2.59,10.82-2.65,11.48-4.1,4-12.2,4-12.2c-.12,4.12-.18,8.51-.09,8.73l.06.1C678,381.06,677.38,399.81,673.51,400.87Z"></path></g><path d="M81.72,284.28s53.9,11.18,72.89,13.15S354,313.25,354,313.25l-21.71,6.92-40.09-2.24L333.71,325,158,307.61c-41.54-3.59-82.51,9.95-82.51,9.95Z" style="opacity:0.05"></path><path d="M677.84,341.79s-29.12,4.58-33.33,4.58-127.13,2.28-130.18,2.47-56.14-5.8-56.14-5.8,49.22,1.89,56.14,2.28,129-2.5,131.49-2.5S677.84,341.79,677.84,341.79Z" style="opacity:0.05"></path><path d="M84.92,279.89c-2,.21-7.52,7.92-8.06,9.63s-3.21,13.32-2.77,15.15,2.26,6.48,4.28,6.87,16.48-5.34,17.55-6.69,2.82-10.11,2.11-13.08S87.52,279.62,84.92,279.89Z" style="fill:#fff"></path><path d="M95.92,304.86c-1.07,1.34-15.53,7.08-17.55,6.68-1.54-.3-3-3.08-3.75-5.2,1.28,1.88,2.59,2.79,3.71,2.74s14.78-4.58,16.22-6.39,2.39-9.15,2.4-10.5-8.64-10.75-8.64-10.75c4.26,2.48,9.24,8.32,9.72,10.33C98.74,294.74,97,303.51,95.92,304.86Z" style="fill:#ebebeb"></path><path d="M639.82,333c-3.2,1-92.48.66-93.63.61s-13.63-21-12.17-20.89,104.93-.8,105.87-.29S640.75,332.71,639.82,333Z" style="fill:#263238"></path><path d="M640.44,316.85c0,.61,0,1.26.06,1.94l-103.56.34c-.39-.68-.75-1.33-1.08-1.94ZM539,322.65c.39.64.78,1.3,1.18,1.94l100.37-.3c0-.64,0-1.29,0-1.94Zm3.4,5.48c.44.69.86,1.34,1.27,1.94l96.68-.29c0-.59.08-1.24.1-1.95Z" style="opacity:0.2"></path><path d="M458.49,313.6c5.22,6.88,17.38,20.46,26.23,21.81,10.41,1.59,42.47-.14,44.3-1.17s-6-15-12.68-20.1S471.22,301.52,465.41,302C459,302.57,456.66,311.2,458.49,313.6Z" style="fill:#fff"></path><path d="M502.75,322.62c.05,10-12.14,15.37-19.49,8.43a11.7,11.7,0,0,1,0-16.86c7.36-6.94,19.56-1.57,19.5,8.43Zm0,0c0-9.55-11.86-14.17-18.28-7.21a10.6,10.6,0,0,0,0,14.43c6.41,7,18.29,2.34,18.28-7.22Z" style="fill:#dbdbdb"></path><path d="M522.17,325.84c.1,7.11-8.72,11.11-14,6.15a8.46,8.46,0,0,1,0-12.31c5.27-5,14.1-1,14,6.16Zm0,0a7.4,7.4,0,0,0-7.84-7.35c-9.07.88-9.07,13.83,0,14.7a7.4,7.4,0,0,0,7.84-7.35Z" style="fill:#dbdbdb"></path><path d="M672.64,325.31c-4.07,6.26-6.46,6.28-13.61,7.18-3.82.48-11.07.64-12.56-.32s1.12-19.91,3.81-22.62c.8-.81,6.87-4.69,9.12-4.5C664.54,305.49,674.07,323.12,672.64,325.31Z" style="fill:#fff"></path><path d="M652.28,333.38c-2.69,0-5.18-.21-6.08-.78-.33-.21-.51-.67-.61-1.48-.46-4.12,1.76-19.34,4.33-21.92.78-.78,7-4.88,9.53-4.65,3.79.33,9.09,8.46,11.72,13.85,1.28,2.63,2.65,6,1.89,7.18h0c-4,6.17-6.65,6.5-13,7.29l-1,.12A60.91,60.91,0,0,1,652.28,333.38Zm6.94-27.84c-2.15,0-7.79,3.57-8.59,4.37-2.42,2.43-5,20.4-3.86,21.87,1.26.79,8.29.71,12.2.21l1-.12c6.38-.79,8.53-1.06,12.3-6.83h0c.24-.38-.08-2.34-2-6.2-3.1-6.34-8-13-10.91-13.29Z" style="fill:#ebebeb"></path><path d="M657.18,320.09c.06,3,.64,6.16,2.6,8.45a2.48,2.48,0,0,0,3.42.71c3.78-3.39,3.78-14.91,0-18.3a2.48,2.48,0,0,0-3.42.7c-2,2.29-2.54,5.5-2.6,8.44Zm0,0c0-3.66,1.24-12.46,6.66-10.17,5.57,3.69,5.57,16.65,0,20.34-5.37,2.33-6.73-6.54-6.66-10.17Z" style="fill:#dbdbdb"></path><path d="M648.56,323c0,2.19.83,6.49,3.48,6.67,3.34-.84,3.34-12.48,0-13.33-2.65.17-3.47,4.46-3.48,6.66Zm0,0c0-2.69.78-9,4.82-7.37,4.23,2.75,4.23,12,0,14.73-4,1.64-4.83-4.68-4.82-7.36Z" style="fill:#dbdbdb"></path><polygon points="615.39 326.36 599.53 326.36 598.04 320.58 613.9 320.58 615.39 326.36" style="fill:#a6a6a6"></polygon><g style="opacity:0.2"><path d="M326.53,384.22c-.38-20.1-.16-45.09-.26-65.2,1.09-12,3.33-23.84,5.22-35.72-.89,7.47-3.72,28.14-4.34,35.28.32,21.58-.07,44-.62,65.64Z"></path><path d="M270.63,276.57l-3.18,12.66c-1.11,5.24-3,10.52-3.12,15.87.56,18.62,1.09,43.29,1.29,62l.07,13.05-.56-13c-.63-17.37-1.27-41.39-1.57-58.72,0-1.92-.24-4.7.25-6.58,1.85-8.54,4.32-16.88,6.82-25.22Z"></path><path d="M161.34,267.78c-2.21,9.1-5,18.14-6.4,27.4.26,4.2,1.8,8.27,3,12.29l-.42-.29a67.88,67.88,0,0,1,25.81,5.56c26.41,11.1,37.16,37.9,36.62,65.09-.3-26.86-10.9-53.26-37-64.19a67.26,67.26,0,0,0-25.4-5.61h-.32l-.09-.29c-1.25-4.1-2.71-8.25-2.9-12.58,1.5-9.32,4.53-18.31,7.07-27.38Z"></path><path d="M114.7,344c-1.85-5-3.72-10.09-7.19-14.22-4.19-5.54-8.13-11.26-12-17q2.88,3.61,5.68,7.29c1.87,2.45,6.62,8.66,8.47,11a33.31,33.31,0,0,1,5,13Z"></path><path d="M306.13,299.89c-.64,2.17-1.48,4.86-3.7,5.9a52,52,0,0,1-9,.22,53.49,53.49,0,0,1-8.91-.89,4.33,4.33,0,0,1-1-.38c-1.54-1.42-2.12-3.44-2.75-5.34.85,1.67,1.67,3.62,3.11,4.82a7.67,7.67,0,0,0,1.78.34c5.19.44,10.5.6,15.71.62a2.24,2.24,0,0,0,1.65-.45,13.12,13.12,0,0,0,3.14-4.84Z"></path><path d="M306.34,296.5c-.51-1.79-1.11-4-2.6-5.09a8.86,8.86,0,0,0-1.85-.33,95.4,95.4,0,0,0-12-.3c-2.71,0-5.16.51-7.06,2.57a12.28,12.28,0,0,0-2.51,3.08,10.88,10.88,0,0,1,2.16-3.42,9.65,9.65,0,0,1,3.29-2.5,16.25,16.25,0,0,1,4.07-.67,57.06,57.06,0,0,1,12.11.48,8.5,8.5,0,0,1,2.06.54c1.68,1.38,2,3.64,2.29,5.64Z"></path><path d="M305.52,296.28c1.91.29,4.71,2.09,1.63,3.35-3.1,1-6.46.69-9.66.88-5.27.06-10.33.2-15.63-.26a5.66,5.66,0,0,1-2.86-1.37c-1.11-1.15-.14-2.5,1.19-2.88,3.19-.91,6.57-.43,9.81-.52a154.35,154.35,0,0,1,15.52.8Zm0,0c-7.67-.83-15.55-.39-23.22.15-1.28.12-4.29,1-1.94,2.26,1.68.87,3.6.69,5.5.84,6.41.24,13,.78,19.38.43,4.09-.37,4.38-2.73.28-3.68Z"></path><path d="M185.7,292.43c-.72,2.14-1.66,4.8-3.92,5.75a53,53,0,0,1-9-.13,54.45,54.45,0,0,1-8.86-1.24,3.85,3.85,0,0,1-1-.42c-1.48-1.47-2-3.52-2.54-5.45.79,1.71,1.53,3.7,2.92,4.95a8.14,8.14,0,0,0,1.77.41c5.17.64,10.47,1,15.67,1.23a2.25,2.25,0,0,0,1.67-.39,13.26,13.26,0,0,0,3.32-4.71Z"></path><path d="M186,289.05c-.43-1.81-.95-4-2.39-5.19a9.28,9.28,0,0,0-1.84-.4,93.38,93.38,0,0,0-11.94-.76c-2.71-.12-5.17.3-7.16,2.29a12.21,12.21,0,0,0-2.62,3,11,11,0,0,1,2.29-3.33,9.83,9.83,0,0,1,3.38-2.37,16.68,16.68,0,0,1,4.1-.51,57.6,57.6,0,0,1,12.08.95,9,9,0,0,1,2,.62c1.63,1.44,1.88,3.72,2.07,5.73Z"></path><path d="M185.24,288.8c4.09,1.06,3.73,3.47-.42,3.8-5.18.32-10.37,0-15.55-.13-3.19-.36-6.75.13-9.77-1.4-1.16-.6-1.95-2.15-.57-3.06a6.23,6.23,0,0,1,3-.83c2.65-.07,5.21.09,7.81.21a154,154,0,0,1,15.48,1.41Zm0,0c-7.64-1.13-15.53-1-23.22-.76-1.28.06-4.31.87-2,2.19,1.64.93,3.57.83,5.46,1,6.4.49,12.94,1.28,19.35,1.19,4.11-.22,4.49-2.57.43-3.67Z"></path></g><path d="M374.23,277.66c-.65,2-44.82,1.36-99.6-.79-8.69-.33-17.41-.71-26-1.13-48.22-2.31-105.53-5.69-106.43-9.35-1.64-6.68,33.38-38.34,42.84-43.61,7.85-4.38,18.22-7.35,43.52-8.19,25.5-.84,62.25-1.29,76.7,1S375.21,274.63,374.23,277.66Z" style="fill:#263238"></path><path d="M185.54,225.71l-11.61,41c-10.26-.5-27-2.36-27.29-3.6-.65-3.36,30.25-33.18,38.66-37.26A1.94,1.94,0,0,0,185.54,225.71Z" style="fill:#37474f"></path><path d="M239.2,218.79c.11.46-7.92,47.77-7.85,52.66q-9.94-.65-18.49-1.24c-.46,0-.94-.08-1.39-.11-1.85-.12-3.65-.26-5.4-.4l-2.33-.17c-.5,0-1-.08-1.51-.12q-11-.84-19.21-1.67c-.6-.05-1.18-.11-1.75-.18l-2.22-.23-.28,0-2.58-.3L188,224.3c7.1-3.6,19.46-6,50.3-6.9A2.68,2.68,0,0,1,239.2,218.79Z" style="fill:#37474f"></path><path d="M349.79,276.49c-10.57.75-103.24-3.86-104.23-3.92.05-9,4.85-54,4.86-54.11a1.81,1.81,0,0,1,.58-1,0,0,0,0,1,0,0l1.73,0,3.28,0,1,0c20.55.25,44.47.85,50.47,1.81,8.14,1.33,38.19,35.12,38.41,35.54C347.43,257.78,351.1,276.39,349.79,276.49Z" style="fill:#37474f"></path><g style="opacity:0.5"><path d="M185.54,225.71l-11.61,41c-10.26-.5-27-2.36-27.29-3.6-.65-3.36,30.25-33.18,38.66-37.26A1.94,1.94,0,0,0,185.54,225.71Z" style="fill:#455a64"></path><path d="M187.79,225a381.87,381.87,0,0,0,47,21.43c-1.81,11.54-3.5,22.8-3.47,25q-9.93-.65-18.49-1.24c-.46,0-.94-.08-1.39-.11-1.85-.13-3.65-.26-5.4-.4l-2.32-.17-1.52-.12c-7.36-.56-13.75-1.12-19.21-1.67-.6-.05-1.18-.11-1.75-.18l-2.22-.23-.28,0-2.58-.3Z" style="fill:#455a64"></path><path d="M349.79,276.49c-10.57.75-103.24-3.86-104.23-3.92,0-3.48.75-12.31,1.64-21.86,23.38,7.6,45.15,11.36,61.31,9.2,18.12-2.43,23.67-10.89,24.57-19,7.08,7.34,12.75,13.77,12.85,13.95C347.43,257.78,351.1,276.39,349.79,276.49Z" style="fill:#455a64"></path><path d="M204.83,219.75l32.07,13.69c-.33,2-.67,4.16-1,6.35a194.51,194.51,0,0,1-37.73-18.86C200.11,220.5,202.32,220.11,204.83,219.75Z" style="fill:#455a64"></path><path d="M278.92,251.37a240.58,240.58,0,0,1-31.08-7.47c.18-1.88.37-3.75.55-5.56Z" style="fill:#455a64"></path></g><path d="M551,274.63s-151.26,2.44-155.23,1.94-16.6-7.32-18.38-8.79S326,218.32,326.63,216.49s106.16.21,129.54,2.85h0c1.56.62,3.13,1.25,4.69,1.91h0c39.56,16.53,77.1,44.51,86.83,51.54a18.72,18.72,0,0,0,2.41,1.64C550.18,274.44,550.49,274.51,551,274.63Z" style="fill:#263238"></path><path d="M547.71,272.8c-21.85.34-145,2.2-148.5,1.77-3.89-.47-16.23-6.88-18-8.26S331,219.85,331.59,218.13s103.82.2,126.68,2.68a23.18,23.18,0,0,1,2.6.44h0C500.44,237.79,538,265.77,547.71,272.8Z" style="fill:#37474f"></path><g style="opacity:0.5"><path d="M547.71,272.8c-21.85.34-145,2.2-148.5,1.77-3.89-.47-16.23-6.88-18-8.26S331,219.85,331.59,218.13c.21-.56,10.67-.75,25.61-.66,11,7.57,38,22.61,87.07,30.22,38.72,6,61.55,5.87,74,4.67C532.42,261.56,543.14,269.49,547.71,272.8Z" style="fill:#455a64"></path><path d="M458.19,242.44c-41.73-4.81-67.92-16.72-81.45-24.74l11.69.21Z" style="fill:#455a64"></path></g><path d="M326.48,274.07c-2.06-2.48,1.73-20.12,3.81-21.2s26.81,2.57,26.56,13.95S329.7,277.93,326.48,274.07Z" style="fill:#D6D6D6"></path><path d="M156.33,277.17c70.2,5.19,140.74,9,211.09,12.15,22.56,1.12,47.79,3.59,70.28,5.8a380,380,0,0,1,69.18,13.67c7.52,2.21,15,4.6,22.41,7.1-6.43-1.76-16.1-4.41-22.69-6.09A467.5,467.5,0,0,0,437.49,297c-23.36-2.34-46.66-5.47-70.13-6.57-70.34-3.36-140.86-7.59-211-13.29Z" style="fill:#fff;opacity:0.7000000000000001"></path><path d="M553.27,279.91a232.75,232.75,0,0,1,71,20.91c1.9,1,4.71,2.44,6.59,3.43a24.35,24.35,0,0,1,5.47,5.2c1.29,1.51,2.49,3.09,3.63,4.71a58.71,58.71,0,0,0-8.39-8.23,14,14,0,0,0-2.54-1.34l-5.37-2.46c-22.61-9.84-46.34-16.81-70.37-22.22Z" style="fill:#fff;opacity:0.7000000000000001"></path><path d="M411.81,282.21c31.39,2.54,62.63,8.37,92.27,19.22,9.84,3.6,19.7,7.44,28.78,12.73a152.79,152.79,0,0,0-14.48-6.08c-14.69-5.46-29.76-10-44.91-14-20.29-5.14-41-8.51-61.66-11.84Z" style="fill:#fff;opacity:0.7000000000000001"></path><path d="M522.28,375.06c.44.56-10.39,13.55-11.14,13.71s-25.68.5-25.85,0,11.72-13,12.47-13.3S521.7,374.31,522.28,375.06Z" style="fill:#263238"></path><path d="M544.4,372.56c-1.37.38-18.71,18.46-17.79,18.79s123.62-1.83,124.28-2-1-18.6-2-18.79C646.57,370.12,548,371.57,544.4,372.56Z" style="fill:#263238"></path><path d="M658.47,372.3c-1.53-.05,1.47,15.37,2.73,15.44s12,0,13.26,0-3.17-13.58-4.42-14A111.64,111.64,0,0,0,658.47,372.3Z" style="fill:#263238"></path><polygon points="636.43 375.13 569.8 375.13 565.8 355.2 632.43 355.2 636.43 375.13" style="fill:#fff"></polygon><g style="opacity:0.4"><path d="M216.46,355.2c-5.2-16.7-17.63-31.08-33.82-37.84-18.86-7.57-41.8-7.37-59.22,3.77a63.7,63.7,0,0,0-23.94,29,60.82,60.82,0,0,1,9.08-16.95c16.93-22.79,46.78-28,72.51-18.35,17.5,6.52,31,22.44,35.39,40.38Z" style="fill:#fff"></path><path d="M437.71,356.21c-4.81-17.14-16.93-32.85-33.93-39-16.6-6.05-36.48-4.71-50.81,6.15-9.58,7.15-16.76,17.36-21.09,28.49a63.12,63.12,0,0,1,7.82-16.33c14.46-22.19,40.32-29.06,64.75-20.08,17.31,6.51,29.55,23.13,33.26,40.82Z" style="fill:#fff"></path></g></g></svg>
